<svg width="707" height="707" viewBox="0 0 707 707" fill="none" xmlns="http://www.w3.org/2000/svg">
<path d="M393.552 321.531L394.677 321.593C395.552 321.635 396.386 321.604 397.177 321.5C397.969 321.395 398.636 321.156 399.177 320.781C399.698 320.427 400.177 319.687 400.615 318.562C401.073 317.437 401.261 316.75 401.177 316.5L388.677 280.937H398.584L406.021 306.062L413.052 280.937H422.521L410.834 314.437C408.584 320.895 406.802 324.895 405.49 326.437C404.177 328 401.552 328.781 397.615 328.781C396.823 328.781 396.188 328.77 395.709 328.75C395.229 328.75 394.511 328.718 393.552 328.656V321.531Z" fill="white"/>
<path d="M369.594 280.062C371.698 280.062 373.604 280.427 375.312 281.156C377.041 281.885 378.458 283 379.562 284.5C380.5 285.77 381.073 287.083 381.281 288.437C381.489 289.77 381.594 291.958 381.594 295V315H372.5V294.281C372.5 292.447 372.187 290.968 371.562 289.843C370.75 288.26 369.208 287.468 366.937 287.468C364.583 287.468 362.791 288.26 361.562 289.843C360.354 291.406 359.75 293.645 359.75 296.562V315H350.875V269.093H359.75V285.375C361.041 283.395 362.531 282.02 364.219 281.25C365.927 280.458 367.719 280.062 369.594 280.062Z" fill="white"/>
<path d="M295.135 268.937L301.229 295.312L302.541 302.656L303.885 295.468L309.072 268.937H319.229L324.697 295.312L326.104 302.656L327.51 295.593L333.666 268.937H343.447L330.479 315H321.291L315.729 288.062L314.104 279.156L312.479 288.062L306.916 315H297.979L284.916 268.937H295.135Z" fill="white"/>
<mask id="mask0_56_415" style="mask-type:alpha" maskUnits="userSpaceOnUse" x="179" y="349" width="349" height="115">
<path d="M221.11 463.62C214.577 463.62 208.656 462.6 203.347 460.558C198.141 458.516 193.751 455.607 190.178 451.83C186.605 447.95 183.849 443.408 181.909 438.201C179.97 432.995 179 427.329 179 421.204C179 413.241 180.582 406.3 183.747 400.379C187.014 394.458 191.454 389.813 197.069 386.444C202.786 383.075 209.319 381.391 216.669 381.391C219.834 381.391 222.795 381.799 225.551 382.616C228.409 383.432 230.961 384.657 233.207 386.291C235.509 387.792 237.418 389.587 238.935 391.677C238.992 391.756 239.084 391.803 239.182 391.803C239.35 391.803 239.486 391.668 239.486 391.5V361.867C239.486 355.313 244.799 350 251.353 350C257.907 350 263.22 355.313 263.22 361.867V421.051C263.22 429.626 261.485 437.129 258.014 443.561C254.543 449.992 249.643 454.943 243.314 458.414C237.087 461.885 229.685 463.62 221.11 463.62ZM221.11 443.101C224.785 443.101 227.95 442.234 230.604 440.498C233.36 438.661 235.453 436.211 236.882 433.148C238.312 429.983 239.026 426.461 239.026 422.582C239.026 418.703 238.312 415.232 236.882 412.169C235.453 409.107 233.36 406.708 230.604 404.972C227.95 403.135 224.785 402.216 221.11 402.216C217.537 402.216 214.373 403.135 211.616 404.972C208.86 406.708 206.767 409.107 205.338 412.169C203.909 415.232 203.194 418.703 203.194 422.582C203.194 426.461 203.909 429.983 205.338 433.148C206.767 436.211 208.86 438.661 211.616 440.498C214.373 442.234 217.537 443.101 221.11 443.101Z" fill="#101010"/>
<path d="M427.058 463.547C418.177 463.547 410.367 461.913 403.63 458.647C396.892 455.278 391.635 450.684 387.857 444.865C384.182 438.944 382.345 432.104 382.345 424.346C382.345 415.771 384.131 408.421 387.704 402.296C391.277 396.17 396.024 391.474 401.945 388.208C407.968 384.839 414.604 383.155 421.852 383.155C430.121 383.155 437.012 384.89 442.524 388.361C448.139 391.832 452.375 396.579 455.234 402.602C458.092 408.523 459.521 415.311 459.521 422.968C459.521 424.295 459.419 425.877 459.215 427.715C459.073 430.131 457.013 431.849 454.593 431.849H414.999C411.063 431.849 408.124 435.725 410.827 438.587C412.562 440.424 414.757 441.803 417.411 442.721C420.065 443.538 423.026 443.946 426.293 443.946H440.533C445.946 443.946 450.334 448.334 450.334 453.747C450.334 459.159 445.946 463.547 440.533 463.547H427.058ZM408.07 411.636C407.105 414.371 409.333 416.996 412.233 416.996H431.713C434.283 416.996 436.295 414.731 435.633 412.249C435.225 410.718 434.561 409.39 433.643 408.268C432.826 407.042 431.856 406.022 430.733 405.205C429.61 404.286 428.283 403.572 426.752 403.061C425.323 402.551 423.689 402.296 421.852 402.296C419.504 402.296 417.411 402.704 415.574 403.521C413.736 404.337 412.205 405.46 410.98 406.889C409.755 408.216 408.785 409.799 408.07 411.636Z" fill="#101010"/>
<path d="M505.621 463.43C498.373 463.43 492.707 461.388 488.624 457.304C484.54 453.119 482.498 447.504 482.498 440.46V377.678C482.498 371.081 487.846 365.734 494.442 365.734C501.039 365.734 506.386 371.081 506.386 377.678V439.082C506.386 440.307 506.795 441.379 507.611 442.298C508.53 443.115 509.602 443.523 510.827 443.523H518.024C523.521 443.523 527.977 447.979 527.977 453.476C527.977 458.973 523.521 463.43 518.024 463.43H505.621ZM479.359 404.322C473.989 404.322 469.636 399.969 469.636 394.599C469.636 389.228 473.989 384.875 479.359 384.875H518.254C523.624 384.875 527.977 389.228 527.977 394.599C527.977 399.969 523.624 404.322 518.254 404.322H479.359Z" fill="#101010"/>
<g clip-path="url(#clip0_56_415)">
<path d="M273.334 407.43C273.334 402.471 273.334 397.524 273.334 392.565C273.334 385.812 277.345 380.822 283.569 380.419C290.286 379.983 294.791 385.568 294.86 391.588C294.959 401.495 294.86 411.411 294.899 421.317C294.929 427.667 297.359 432.806 302.101 436.575C311.663 444.198 325.335 439.166 328.714 426.881C329.336 424.609 329.643 422.337 329.623 419.958C329.583 410.753 329.603 401.558 329.603 392.353C329.603 385.812 333.673 380.801 339.739 380.397C344.372 380.09 348.619 382.553 350.457 388.021C350.961 389.518 351.198 391.079 351.198 392.703C351.168 402.121 351.257 411.549 351.168 420.967C351.04 434.664 346.11 445.971 336.064 454.487C330.107 459.541 323.231 462.259 315.645 462.991C306.418 463.873 297.942 461.462 290.345 455.973C284.191 451.535 279.597 445.536 276.663 438.093C274.263 432.009 273.265 425.692 273.334 419.109C273.374 415.212 273.334 411.326 273.334 407.43Z" fill="#101010"/>
<path opacity="0.6" d="M372.22 408.056C372.22 412.696 372.259 417.347 372.22 421.987C372.141 430.735 369.632 438.667 364.969 445.812C358.548 455.655 349.519 460.921 338.662 462.843C336.439 463.236 334.167 463.374 331.895 463.246C331.5 463.225 330.927 463.353 330.799 462.875C330.641 462.259 331.273 462.142 331.638 461.94C341.991 456.26 348.847 447.352 352.581 435.63C353.875 431.564 354.418 427.317 354.586 422.995C354.962 413.312 354.705 403.629 354.744 393.946C354.754 391.185 354.606 388.361 353.519 385.749C353.114 384.761 353.589 384.156 354.181 383.551C357.254 380.451 360.82 379.623 364.801 380.96C368.723 382.277 371.015 385.25 371.933 389.508C372.18 390.633 372.23 391.78 372.23 392.937C372.23 397.98 372.23 403.024 372.23 408.067L372.22 408.056Z" fill="#A4A4A4"/>
<path opacity="0.6" d="M315.911 406.665C315.911 411.305 315.892 415.956 315.911 420.596C315.931 424.949 316.879 428.994 319.359 432.54C320.228 433.783 320.139 433.963 318.806 434.643C313.254 437.509 308.018 437.074 303.277 432.742C300.106 429.843 298.515 425.989 298.485 421.519C298.426 412.048 298.485 402.588 298.446 393.117C298.446 390.59 298.169 388.085 297.201 385.738C296.885 384.974 297.073 384.411 297.567 383.816C302.229 378.231 311.644 379.665 314.627 386.439C315.467 388.339 315.941 390.325 315.921 392.459C315.882 397.194 315.911 401.93 315.911 406.655V406.665Z" fill="#A4A4A4"/>
</g>
</mask>
<g mask="url(#mask0_56_415)">
<path d="M178.439 348.876H527.966V463.512H178.439V348.876Z" fill="url(#paint0_linear_56_415)"/>
</g>
<path fill-rule="evenodd" clip-rule="evenodd" d="M353.5 699C544.314 699 699 544.314 699 353.5C699 162.685 544.314 7.99951 353.5 7.99951C162.686 7.99951 8 162.685 8 353.5C8 544.314 162.686 699 353.5 699ZM353.5 707C548.733 707 707 548.732 707 353.5C707 158.267 548.733 -0.000488281 353.5 -0.000488281C158.267 -0.000488281 0 158.267 0 353.5C0 548.732 158.267 707 353.5 707Z" fill="url(#paint1_linear_56_415)"/>
<defs>
<linearGradient id="paint0_linear_56_415" x1="178.439" y1="406.194" x2="527.966" y2="406.194" gradientUnits="userSpaceOnUse">
<stop stop-color="#6AB6FC"/>
<stop offset="0.203125" stop-color="#5B63DD"/>
<stop offset="0.40625" stop-color="#9A44B3"/>
<stop offset="0.60331" stop-color="#CA4587"/>
<stop offset="0.807292" stop-color="#D45062"/>
<stop offset="1" stop-color="#E77944"/>
</linearGradient>
<linearGradient id="paint1_linear_56_415" x1="0" y1="-0.000488281" x2="751.36" y2="50.7914" gradientUnits="userSpaceOnUse">
<stop stop-color="#6AB6FC"/>
<stop offset="0.208317" stop-color="#5B63DD"/>
<stop offset="0.401037" stop-color="#9A44B3"/>
<stop offset="0.609383" stop-color="#CA4587"/>
<stop offset="0.802102" stop-color="#D45062"/>
<stop offset="1" stop-color="#E77944"/>
</linearGradient>
<clipPath id="clip0_56_415">
<rect width="98.8951" height="82.9443" fill="white" transform="translate(273.335 380.344)"/>
</clipPath>
</defs>
</svg>
