<svg width="84" height="84" viewBox="0 0 84 84" fill="none" xmlns="http://www.w3.org/2000/svg">
<circle cx="42" cy="42" r="40" fill="url(#paint0_linear_43_447)" stroke="#0B0B15" stroke-width="3"/>
<path fill-rule="evenodd" clip-rule="evenodd" d="M27.942 24.3787C27.9184 24.1036 27.7865 23.8491 27.5754 23.6711C27.3642 23.4932 27.0911 23.4064 26.8159 23.4297L24.7388 23.6058C24.6025 23.6173 24.4698 23.6556 24.3483 23.7185C24.2268 23.7813 24.1188 23.8675 24.0306 23.972C23.9424 24.0766 23.8756 24.1975 23.8342 24.3279C23.7927 24.4582 23.7773 24.5955 23.7888 24.7318L24.1316 28.762C23.9817 28.8665 23.862 29.0086 23.7844 29.174C23.7067 29.3394 23.674 29.5223 23.6894 29.7043C23.7048 29.8864 23.7678 30.0612 23.8721 30.2112C23.9764 30.3612 24.1183 30.4811 24.2836 30.5589L24.6482 34.8527C24.6598 34.989 24.6981 35.1217 24.7609 35.2432C24.8237 35.3647 24.9099 35.4727 25.0145 35.5609C25.119 35.6491 25.24 35.7159 25.3703 35.7573C25.5007 35.7988 25.6379 35.8142 25.7743 35.8027L27.8503 35.6256C28.1254 35.6022 28.38 35.4706 28.5581 35.2597C28.7363 35.0487 28.8234 34.7757 28.8003 34.5006L28.4149 29.9735C28.9461 29.8787 29.467 29.7881 29.9816 29.7027C30.0909 31.4214 30.4086 34.337 30.9941 37.0829C31.3691 38.8329 31.8816 40.6599 32.5941 42.0974C32.9482 42.8141 33.4086 43.5474 34.018 44.1266C34.5566 44.6391 35.2857 45.0922 36.1857 45.211V49.7235L35.8461 49.6016L35.6138 49.5183C34.567 49.1433 33.5034 48.762 32.6909 48.5568C32.2972 48.4568 31.7003 48.3266 31.1149 48.3787C30.6152 48.417 30.1384 48.6042 29.7461 48.9162C29.4783 49.1347 29.2628 49.4105 29.1155 49.7233C28.9682 50.036 28.8929 50.3778 28.8951 50.7235C28.8951 51.5808 29.1878 53.786 29.4368 55.5474C29.5903 56.6348 29.75 57.7213 29.9159 58.8068L29.9493 59.0245L29.9586 59.0818L29.9607 59.0964V59.1016L32.0201 58.7829L29.9618 59.1016C30.0414 59.6063 30.3038 60.0642 30.699 60.3881C31.0941 60.712 31.5946 60.8794 32.1051 60.8584C32.6156 60.8374 33.1006 60.6296 33.4679 60.2744C33.8352 59.9192 34.0592 59.4414 34.0972 58.9318L34.4826 53.5391C35.6399 53.9537 36.9909 54.4318 38.3253 54.8068C39.6513 55.1797 41.1066 55.4943 42.4368 55.4943C43.767 55.4943 45.2222 55.1797 46.5482 54.8068C47.8711 54.4349 49.2107 53.961 50.3607 53.5495L50.7763 58.9422C50.8159 59.4514 51.0411 59.9283 51.4091 60.2823C51.7771 60.6364 52.2624 60.8429 52.7727 60.8627C53.283 60.8825 53.7828 60.7142 54.1771 60.3897C54.5715 60.0652 54.8329 59.6072 54.9118 59.1027L54.9128 59.0964L54.9149 59.0818L54.9243 59.0245L54.9576 58.8058L55.0763 58.0214C55.1743 57.3672 55.3055 56.4797 55.4368 55.5474C55.6857 53.786 55.9784 51.5808 55.9784 50.7245C55.9784 50.1099 55.7388 49.4141 55.1263 48.9162C54.7341 48.6041 54.2573 48.4169 53.7576 48.3787C53.1722 48.3266 52.5753 48.4568 52.1805 48.5558C51.368 48.762 50.3055 49.1433 49.2586 49.5183L49.0263 49.6016L48.6868 49.7235V45.2162C50.6555 44.9964 51.8482 43.4006 52.5055 42.1308C53.268 40.6599 53.7659 38.8006 54.1034 37.0412C54.6326 34.2922 54.8409 31.4058 54.9086 29.7162C55.417 29.7995 55.9326 29.8881 56.4566 29.9808L56.0711 34.5006C56.0481 34.7759 56.1353 35.0491 56.3137 35.26C56.492 35.471 56.7469 35.6025 57.0222 35.6256L59.0972 35.8027C59.2335 35.8142 59.3708 35.7988 59.5011 35.7573C59.6315 35.7159 59.7524 35.6491 59.857 35.5609C59.9615 35.4727 60.0477 35.3647 60.1105 35.2432C60.1734 35.1217 60.2117 34.989 60.2232 34.8527L60.5878 30.5589C60.7537 30.4817 60.8962 30.362 61.001 30.212C61.1058 30.0621 61.1692 29.8871 61.1847 29.7048C61.2002 29.5225 61.1674 29.3393 61.0895 29.1738C61.0115 29.0083 60.8913 28.8662 60.7409 28.762L61.0836 24.7318C61.0952 24.5955 61.0798 24.4582 61.0383 24.3279C60.9968 24.1975 60.9301 24.0766 60.8419 23.972C60.7537 23.8675 60.6457 23.7813 60.5242 23.7185C60.4027 23.6556 60.27 23.6173 60.1336 23.6058L58.0576 23.4287C57.7825 23.4056 57.5094 23.4927 57.2985 23.6709C57.0875 23.849 56.9559 24.1036 56.9326 24.3787L56.6336 27.8964C55.9691 27.7797 55.318 27.6704 54.6784 27.5683C54.5227 27.2859 54.3036 27.0436 54.0383 26.8603C53.773 26.677 53.4688 26.5578 53.1496 26.512C52.8304 26.4663 52.505 26.4953 52.1989 26.5967C51.8928 26.6981 51.6145 26.8691 51.3857 27.0964C45.0555 26.2974 39.6961 26.2985 33.4763 27.086C33.2476 26.8622 32.9704 26.6941 32.6662 26.5948C32.362 26.4954 32.039 26.4675 31.7223 26.5131C31.4056 26.5588 31.1036 26.6767 30.8399 26.8579C30.5761 27.0391 30.3576 27.2786 30.2013 27.5579C29.5597 27.6599 28.9066 27.7704 28.2399 27.8891L27.942 24.3787ZM35.0701 36.212C34.5854 33.8681 34.268 31.4927 34.1201 29.1037C39.8816 28.4027 44.8961 28.4027 50.7607 29.1172C50.7211 30.5047 50.5441 33.486 50.0118 36.2537C49.6993 37.8797 49.293 39.2756 48.8066 40.2141C48.4753 40.8527 48.2482 41.0318 48.1732 41.0745H36.8566C36.7357 40.9485 36.5493 40.6933 36.3284 40.2474C35.8472 39.2756 35.4201 37.8474 35.0701 36.212ZM47.1243 34.3037C47.1243 35.5469 46.6304 36.7392 45.7513 37.6183C44.8722 38.4973 43.68 38.9912 42.4368 38.9912C41.1936 38.9912 40.0013 38.4973 39.1222 37.6183C38.2431 36.7392 37.7493 35.5469 37.7493 34.3037C37.7493 33.0605 38.2431 31.8682 39.1222 30.9891C40.0013 30.1101 41.1936 29.6162 42.4368 29.6162C43.68 29.6162 44.8722 30.1101 45.7513 30.9891C46.6304 31.8682 47.1243 33.0605 47.1243 34.3037Z" fill="#422790"/>
<defs>
<linearGradient id="paint0_linear_43_447" x1="42" y1="2" x2="42" y2="82" gradientUnits="userSpaceOnUse">
<stop stop-color="#A097D3"/>
<stop offset="1" stop-color="#9270E5"/>
</linearGradient>
</defs>
</svg>
