<svg width="84" height="84" viewBox="0 0 84 84" fill="none" xmlns="http://www.w3.org/2000/svg">
<circle cx="42" cy="42" r="40" fill="url(#paint0_linear_43_428)" stroke="#0B0B15" stroke-width="3"/>
<path d="M63.8408 43.4336H60.1943C59.6745 44.5159 59.0789 45.5601 58.4121 46.5586H63.8408V43.4336ZM20.0908 40.3086V43.4336H23.7373C23.2547 42.4243 22.8499 41.3796 22.5264 40.3086H20.0908Z" fill="#85252B"/>
<path d="M46.6533 42.2402L41.6016 52.3437L36.9141 36.7188L33.5566 43.4336H23.7373C24.7139 45.4766 26.0322 47.4775 27.7051 49.457C31.623 54.0918 36.9092 57.2451 41.084 60.0352L41.9629 60.6211L42.8418 60.0352C47.0195 57.2451 52.3057 54.0918 56.2207 49.457C57.0063 48.5338 57.738 47.5661 58.4121 46.5586H48.8125L46.6533 42.2402Z" fill="#85252B"/>
<path d="M37.6426 28.2734L42.3301 43.8984L46.6533 35.252L50.7441 43.4336H60.1943C61.6007 40.533 62.3141 37.3454 62.2783 34.1221C62.2168 28.0566 57.3506 23.1211 51.4306 23.1211C46.7324 23.1211 43.6084 25.8555 41.9658 27.8291C40.3232 25.8555 37.1992 23.1211 32.501 23.1211C26.581 23.1211 21.7148 28.0566 21.6533 34.1221C21.6285 36.2166 21.9229 38.3027 22.5263 40.3086H31.625L37.6426 28.2734Z" fill="#85252B"/>
<defs>
<linearGradient id="paint0_linear_43_428" x1="42" y1="2" x2="42" y2="82" gradientUnits="userSpaceOnUse">
<stop stop-color="#FEA1A9"/>
<stop offset="1" stop-color="#E67A7F"/>
</linearGradient>
</defs>
</svg>
