<svg width="84" height="84" viewBox="0 0 84 84" fill="none" xmlns="http://www.w3.org/2000/svg">
<circle cx="42" cy="42" r="40" fill="url(#paint0_linear_43_441)" stroke="#0B0B15" stroke-width="3"/>
<path d="M63.3565 44.8313C66.3494 39.1297 60.2658 35.1758 52.3119 33.2367C52.9104 31.8766 53.0838 30.0961 51.3963 28.3961C49.2322 26.2203 50.6705 23.0508 50.6705 23.0508C50.6705 23.0508 46.1283 27.2406 48.9963 30.1297C50.0541 31.1945 50.6049 32.1297 50.8682 32.9117C48.6724 32.4591 46.449 32.1527 44.2127 31.9945C44.8807 30.1789 44.9455 27.8984 42.8408 25.7148C39.9596 22.7219 41.8783 18.3633 41.8783 18.3633C41.8783 18.3633 35.8213 24.1242 39.6455 28.0961C41.0416 29.5445 41.7768 30.8195 42.133 31.8883C39.7627 31.8172 37.4815 31.9211 35.4549 32.2047C35.6963 31.0367 35.4947 29.6938 34.2065 28.3969C32.0424 26.2211 33.4814 23.0508 33.4814 23.0508C33.4814 23.0508 28.9385 27.2406 31.8072 30.1297C32.7057 31.0344 33.2322 31.8422 33.5346 32.5461C33.1924 32.6211 32.8604 32.7023 32.5408 32.7906C22.6643 31.8664 18.3565 33.907 20.3244 37.9102C16.89 41.3445 18.1807 45.2641 22.4783 48.2633C24.7205 57.4984 25.2979 65.2383 42.1854 65.2383C57.2541 65.2383 59.3361 59.0742 61.2025 51.1852C66.8025 50.0703 65.6096 47.3859 63.3565 44.8313ZM61.9604 43.9086C60.0846 47.9086 51.9439 50.9195 42.1854 50.9195C32.4275 50.9195 24.2869 47.9086 22.4104 43.9086C22.3705 43.7898 22.3322 43.6664 22.294 43.5461C23.1877 41.2789 26.0924 39.3117 30.1721 37.9945C29.2135 38.9211 29.0143 40.3047 31.5369 40.7898C32.2588 40.9289 34.2408 40.4477 33.3744 37.9883C33.2533 37.6445 33.0557 37.4141 32.8127 37.275C35.6158 36.6336 38.7979 36.2641 42.1854 36.2641C42.565 36.2641 42.9377 36.2773 43.3119 36.2859C41.3572 36.9797 39.7627 39.1172 43.7541 39.7477C44.6354 39.8867 47.0549 39.4055 45.9971 36.9461C45.9047 36.7269 45.7565 36.5357 45.5674 36.3914C49.3072 36.6664 52.6955 37.3867 55.4346 38.425C53.026 38.2906 50.3541 39.775 54.633 41.8648C55.551 42.3133 58.34 42.725 57.9564 40.0094C57.9287 39.8132 57.8595 39.6251 57.7533 39.4578C59.9432 40.6117 61.4705 42.0109 62.076 43.5461L61.9604 43.9086Z" fill="#854E00"/>
<path d="M36.983 45.5826C39.5088 45.5826 41.1932 43.299 42.5127 42.4053C44.3565 41.1553 48.9924 40.6678 44.9096 40.5694C41.0369 40.4764 36.2557 43.6201 33.0604 43.4037C27.7697 43.0444 33.1885 45.5826 36.983 45.5826ZM42.4408 50.2483C43.333 50.4201 45.7854 49.8248 44.7127 46.7834C43.501 43.342 36.1658 49.0404 42.4408 50.2483ZM28.5533 42.7209C27.701 41.5178 26.465 39.992 25.9533 40.7865C25.2541 41.8733 25.0338 44.06 25.5416 44.1569C29.5229 44.9201 29.244 43.6951 28.5533 42.7209ZM51.6979 43.2084C52.4158 42.3194 50.9822 40.1795 50.0619 40.5537C48.6213 41.1397 47.7908 40.7428 47.158 41.6319C45.676 43.7139 50.7221 44.4154 51.6979 43.2084ZM51.2494 45.7561C50.2166 45.3006 50.4604 46.8264 48.9346 45.6022C47.8424 44.7256 45.4924 46.9365 47.0424 48.4381C48.7674 50.1092 49.2268 48.5209 49.9518 48.6545C51.4252 48.9256 53.9588 46.9514 51.2494 45.7561ZM34.076 46.2779C33.5377 45.7483 32.8158 46.3873 32.408 47.167C32.0041 46.9686 31.6752 46.9225 31.6752 46.9225C31.3666 46.0428 30.4486 45.4397 30.4486 45.4397C30.4486 45.4397 30.5322 46.3545 30.6533 46.8006C29.6393 46.4405 29.608 44.6279 29.608 44.6279C29.608 44.6279 28.9275 45.035 28.9893 45.7264C27.8729 44.8256 26.9221 45.2467 26.9221 45.2467C26.9221 45.2467 28.3385 46.0436 28.5338 46.5811C27.7385 46.6428 27.2744 46.9178 27.0041 47.5576C27.0049 47.5631 28.576 46.81 29.7385 47.3537C29.2799 47.7287 29.508 48.6654 29.508 48.6654C30.59 47.5186 31.4541 47.6412 32.1455 47.8467C32.0619 48.1975 32.0674 48.5178 32.2158 48.7123C33.415 50.2889 37.5924 49.9342 38.7143 48.7686C40.0729 47.3584 36.2979 48.4647 34.076 46.2779Z" fill="#854E00"/>
<path d="M37.0268 40.34C36.6713 41.0541 36.669 41.5932 37.0799 42.1541C37.0854 42.1557 37.2455 40.4213 38.3088 39.7025C38.3955 40.2885 39.3158 40.5729 39.3158 40.5729C38.5799 37.9666 40.7283 37.8307 40.7182 36.8955C39.5791 36.9916 38.9323 37.8197 38.9323 37.8197C38.019 37.633 37.0291 38.1104 37.0291 38.1104C37.0291 38.1104 37.858 38.508 38.3026 38.6338C37.4729 39.3189 35.901 38.415 35.901 38.415C35.901 38.415 35.901 39.2088 36.526 39.5096C35.1799 40.0057 35.0533 41.0369 35.0533 41.0369C35.0533 41.0369 36.4643 40.2314 37.0268 40.34ZM56.9885 43.8994C57.3119 43.2854 56.8401 42.6471 56.8401 42.6471C56.8401 42.6471 56.1143 44.3088 55.0401 44.2518C55.3229 43.8861 55.7526 43.0736 55.7526 43.0736C55.7526 43.0736 54.6729 43.2791 54.0494 43.9721C54.0494 43.9721 53.0369 43.6916 52.0651 44.2916C52.6135 45.0494 54.4213 43.8799 55.3799 46.4127C55.3799 46.4127 55.9502 45.6369 55.6713 45.1143C56.9541 45.0588 58.1151 46.3572 58.119 46.3525C58.1143 45.6572 57.7924 45.226 57.0807 44.8635C57.4682 44.4424 59.0823 44.251 59.0823 44.251C59.0823 44.251 58.3666 43.4971 56.9885 43.8994Z" fill="#854E00"/>
<defs>
<linearGradient id="paint0_linear_43_441" x1="42" y1="2" x2="42" y2="82" gradientUnits="userSpaceOnUse">
<stop stop-color="#F6C277"/>
<stop offset="1" stop-color="#EAA649"/>
</linearGradient>
</defs>
</svg>
