<svg width="84" height="84" viewBox="0 0 84 84" fill="none" xmlns="http://www.w3.org/2000/svg">
<circle cx="42" cy="42" r="40" fill="url(#paint0_linear_2_366)" stroke="#0B0B15" stroke-width="3"/>
<path fill-rule="evenodd" clip-rule="evenodd" d="M35.2978 41.9396C33.2561 41.3968 29.1384 39.875 29.1384 36.4229C29.1384 31.8323 34.7405 25.5239 34.7405 25.5239C34.7405 25.5239 36.5645 22.3989 41.6957 22.3989C46.8259 22.3989 49.4478 25.5239 49.4478 25.5239C49.4478 25.5239 53.0968 29.6146 53.0968 36.4229C53.0968 39.9312 51.0384 41.3552 49.0436 41.9125C47.4228 43.8395 44.9238 45.0614 42.1593 45.0614C39.4072 45.0614 36.9197 43.8521 35.2978 41.9396ZM35.9041 38.9791C36.8666 41.2958 39.2707 42.9791 42.1593 42.9791C43.3468 42.9791 44.452 42.6937 45.4093 42.1979L45.3436 42.1906C45.3436 42.1906 51.5707 36.1823 46.3259 28.6489C45.7561 27.5896 37.078 30.2114 35.9093 31.7739C35.2072 32.7114 35.5322 36.2791 35.9041 38.9791Z" fill="#16426A"/>
<path d="M31.6672 51.2192C31.0472 51.6416 30.5813 52.2941 30.3519 53.0615C30.1226 53.8288 30.1445 54.6616 30.4138 55.4127C30.6831 56.1638 31.1825 56.7849 31.8237 57.1663C32.4649 57.5476 33.2067 57.6647 33.918 57.4968C34.6294 57.3289 35.2645 56.8869 35.7111 56.2488C36.1577 55.6107 36.3872 54.8176 36.3589 54.0096C36.3306 53.2016 36.0464 52.4307 35.5565 51.8331C35.0667 51.2355 34.4026 50.8497 33.6817 50.7438C33.6432 50.5904 33.6079 50.4361 33.5758 50.2809C33.4353 49.5748 33.3255 48.8616 33.2469 48.1437C33.162 47.4182 33.114 46.6878 33.1031 45.9563C33.1009 45.7553 33.1061 45.5544 33.1185 45.354C33.5131 45.2282 33.9099 45.114 34.3056 45.0145C34.7588 44.9002 35.0281 45.4945 35.2449 45.9768L35.2562 46.002L35.3333 46.17H47.4087C47.6441 45.674 48.1775 44.8831 48.6944 45.0145C49.2453 45.154 49.7993 45.3197 50.3481 45.5094L50.3451 45.5105C50.343 45.5082 50.343 45.5082 50.3451 45.5128C50.3492 45.5288 50.3718 45.6042 50.3944 45.7643C50.4201 45.9494 50.4376 46.1894 50.4458 46.4786C50.4602 47.0546 50.4304 47.7551 50.3697 48.4615C50.3081 49.1666 50.2166 49.8489 50.1138 50.3872C50.0912 50.5072 50.0686 50.6158 50.046 50.7141H48.6944C48.5036 50.7142 48.3166 50.7734 48.1543 50.885C47.992 50.9966 47.8609 51.1563 47.7756 51.3461L46.7478 53.6318C46.6763 53.7904 46.639 53.9653 46.6389 54.1427V56.4285C46.6389 56.7316 46.7472 57.0223 46.9399 57.2366C47.1327 57.4509 47.3941 57.5714 47.6667 57.5714H49.7222V55.2856H48.6944V54.4124L49.3296 52.9998H52.1704L52.8056 54.4124V55.2856H51.7778V57.5714H53.8333C54.1059 57.5714 54.3673 57.4509 54.5601 57.2366C54.7528 57.0223 54.8611 56.7316 54.8611 56.4285V54.1427C54.861 53.9653 54.8237 53.7904 54.7522 53.6318L53.7244 51.3461C53.6391 51.1563 53.508 50.9966 53.3457 50.885C53.1834 50.7734 52.9964 50.7142 52.8056 50.7141H52.1519C52.2619 50.1049 52.3533 49.394 52.415 48.6809C52.4828 47.9106 52.5178 47.1117 52.5003 46.4146L52.4993 46.3825C56.5981 48.3083 60 51.4752 60 54.7942V61H23V54.7942C23 51.3289 26.7103 48.0283 31.0485 46.1345C31.0598 46.8454 31.1205 47.6489 31.2078 48.4272C31.3024 49.2672 31.4309 50.1026 31.5727 50.7906C31.6035 50.9381 31.6344 51.0809 31.6672 51.2192Z" fill="#16426A"/>
<path d="M33.3051 55.7479C33.8655 55.7479 34.3468 55.2896 34.3468 54.6906C34.3468 54.0927 33.8655 53.6333 33.3051 53.6333C32.7447 53.6333 32.2634 54.0916 32.2634 54.6906C32.2634 55.2885 32.7447 55.7479 33.3051 55.7479Z" fill="#16426A"/>
<defs>
<linearGradient id="paint0_linear_2_366" x1="42" y1="2" x2="42" y2="82" gradientUnits="userSpaceOnUse">
<stop stop-color="#EDF6FF"/>
<stop offset="1" stop-color="#D1E9FF"/>
</linearGradient>
</defs>
</svg>
