<svg width="100%" fill="none" xmlns="http://www.w3.org/2000/svg">
            <line x1="501" y1="8.72888" x2="686" y2="8.7289" stroke="#FFA148" />
            <path
                d="M151.219 3.48389H153.664V10.562C153.664 11.3537 153.758 11.9318 153.945 12.2964C154.237 12.9422 154.872 13.2651 155.852 13.2651C156.826 13.2651 157.458 12.9422 157.75 12.2964C157.938 11.9318 158.031 11.3537 158.031 10.562V3.48389H160.477V10.562C160.477 11.786 160.286 12.7391 159.906 13.4214C159.198 14.6714 157.846 15.2964 155.852 15.2964C153.857 15.2964 152.503 14.6714 151.789 13.4214C151.409 12.7391 151.219 11.786 151.219 10.562V3.48389ZM163.302 3.48389H165.826L170.412 11.5229V3.48389H172.654V14.9995H170.248L165.544 6.81982V14.9995H163.302V3.48389ZM177.8 5.48389V12.9995H180.018C181.154 12.9995 181.946 12.4396 182.393 11.3198C182.638 10.7052 182.761 9.97347 182.761 9.12451C182.761 7.95264 182.576 7.0542 182.206 6.4292C181.841 5.79899 181.112 5.48389 180.018 5.48389H177.8ZM180.425 3.48389C181.138 3.4943 181.732 3.57764 182.206 3.73389C183.013 3.99951 183.667 4.48649 184.167 5.19482C184.568 5.76774 184.841 6.38753 184.987 7.0542C185.133 7.72087 185.206 8.35628 185.206 8.96045C185.206 10.4917 184.899 11.7886 184.284 12.8511C183.451 14.2834 182.164 14.9995 180.425 14.9995H175.464V3.48389H180.425ZM196.102 5.52295H190.008V7.96826H195.602V9.96826H190.008V12.9292H196.383V14.9995H187.657V3.48389H196.102V5.52295ZM201.224 5.48389V8.57764H203.951C204.493 8.57764 204.899 8.51514 205.17 8.39014C205.649 8.17139 205.888 7.7391 205.888 7.09326C205.888 6.39535 205.657 5.9266 205.193 5.68701C204.933 5.5516 204.542 5.48389 204.021 5.48389H201.224ZM204.521 3.48389C205.329 3.49951 205.948 3.59847 206.381 3.78076C206.818 3.96305 207.188 4.23128 207.49 4.58545C207.74 4.87712 207.938 5.20003 208.084 5.5542C208.23 5.90837 208.303 6.31201 208.303 6.76514C208.303 7.31201 208.164 7.85107 207.888 8.38232C207.612 8.90837 207.157 9.28076 206.521 9.49951C207.053 9.71305 207.428 10.0177 207.646 10.4136C207.87 10.8042 207.982 11.4032 207.982 12.2104V12.9839C207.982 13.5099 208.003 13.8667 208.045 14.0542C208.107 14.3511 208.253 14.5698 208.482 14.7104V14.9995H205.834C205.761 14.7443 205.709 14.5386 205.678 14.3823C205.615 14.0594 205.581 13.7287 205.576 13.3901L205.56 12.3198C205.55 11.5854 205.414 11.0959 205.154 10.8511C204.899 10.6063 204.417 10.4839 203.709 10.4839H201.224V14.9995H198.873V3.48389H204.521ZM212.683 11.4448C212.756 11.9709 212.899 12.3641 213.112 12.6245C213.503 13.0985 214.172 13.3354 215.12 13.3354C215.688 13.3354 216.149 13.2729 216.503 13.1479C217.175 12.9084 217.511 12.4631 217.511 11.812C217.511 11.4318 217.344 11.1375 217.011 10.9292C216.678 10.7261 216.154 10.5464 215.441 10.3901L214.222 10.1167C213.024 9.84587 212.196 9.5516 211.737 9.23389C210.961 8.70264 210.573 7.87191 210.573 6.7417C210.573 5.71045 210.948 4.85368 211.698 4.17139C212.448 3.4891 213.55 3.14795 215.003 3.14795C216.217 3.14795 217.251 3.47087 218.105 4.1167C218.964 4.75732 219.415 5.68962 219.456 6.91357H217.144C217.102 6.22087 216.8 5.72868 216.237 5.43701C215.862 5.2443 215.396 5.14795 214.839 5.14795C214.219 5.14795 213.724 5.27295 213.355 5.52295C212.985 5.77295 212.8 6.12191 212.8 6.56982C212.8 6.98128 212.982 7.28857 213.347 7.4917C213.581 7.62712 214.081 7.78597 214.847 7.96826L216.831 8.44482C217.701 8.65316 218.357 8.9318 218.8 9.28076C219.487 9.82243 219.831 10.6063 219.831 11.6323C219.831 12.6844 219.428 13.5594 218.62 14.2573C217.818 14.95 216.683 15.2964 215.214 15.2964C213.714 15.2964 212.534 14.9552 211.675 14.2729C210.816 13.5854 210.386 12.6427 210.386 11.4448H212.683ZM230.54 3.48389V5.52295H227.094V14.9995H224.673V5.52295H221.212V3.48389H230.54ZM234.475 10.6479H237.397L235.959 6.1167L234.475 10.6479ZM234.623 3.48389H237.342L241.42 14.9995H238.811L238.068 12.6323H233.826L233.029 14.9995H230.514L234.623 3.48389ZM243.41 3.48389H245.933L250.519 11.5229V3.48389H252.761V14.9995H250.355L245.652 6.81982V14.9995H243.41V3.48389ZM257.907 5.48389V12.9995H260.126C261.261 12.9995 262.053 12.4396 262.501 11.3198C262.746 10.7052 262.868 9.97347 262.868 9.12451C262.868 7.95264 262.683 7.0542 262.313 6.4292C261.949 5.79899 261.22 5.48389 260.126 5.48389H257.907ZM260.532 3.48389C261.246 3.4943 261.839 3.57764 262.313 3.73389C263.121 3.99951 263.774 4.48649 264.274 5.19482C264.675 5.76774 264.949 6.38753 265.095 7.0542C265.241 7.72087 265.313 8.35628 265.313 8.96045C265.313 10.4917 265.006 11.7886 264.392 12.8511C263.558 14.2834 262.272 14.9995 260.532 14.9995H255.571V3.48389H260.532ZM269.897 14.9995H267.506V3.48389H269.897V14.9995ZM272.668 3.48389H275.191L279.777 11.5229V3.48389H282.019V14.9995H279.613L274.91 6.81982V14.9995H272.668V3.48389ZM292.572 7.07764C292.389 6.29118 291.944 5.7417 291.236 5.4292C290.84 5.25732 290.4 5.17139 289.915 5.17139C288.988 5.17139 288.225 5.52295 287.626 6.22607C287.033 6.92399 286.736 7.97607 286.736 9.38232C286.736 10.799 287.059 11.8016 287.704 12.3901C288.35 12.9787 289.085 13.2729 289.908 13.2729C290.715 13.2729 291.376 13.0412 291.892 12.5776C292.408 12.1089 292.725 11.4969 292.845 10.7417H290.181V8.81982H294.978V14.9995H293.384L293.142 13.562C292.678 14.1089 292.262 14.4943 291.892 14.7183C291.256 15.1089 290.475 15.3042 289.548 15.3042C288.022 15.3042 286.772 14.7756 285.798 13.7183C284.783 12.6558 284.275 11.2026 284.275 9.35889C284.275 7.4943 284.788 5.99951 285.814 4.87451C286.84 3.74951 288.197 3.18701 289.884 3.18701C291.348 3.18701 292.522 3.55941 293.408 4.3042C294.298 5.04378 294.809 5.96826 294.939 7.07764H292.572ZM311.223 3.48389V5.52295H307.777V14.9995H305.356V5.52295H301.895V3.48389H311.223ZM313.181 14.9995V3.48389H315.564V7.87451H320.064V3.48389H322.455V14.9995H320.064V9.85889H315.564V14.9995H313.181ZM333.835 5.52295H327.741V7.96826H333.335V9.96826H327.741V12.9292H334.116V14.9995H325.39V3.48389H333.835V5.52295ZM343.9 5.48389V12.9995H346.119C347.254 12.9995 348.046 12.4396 348.494 11.3198C348.739 10.7052 348.861 9.97347 348.861 9.12451C348.861 7.95264 348.676 7.0542 348.307 6.4292C347.942 5.79899 347.213 5.48389 346.119 5.48389H343.9ZM346.525 3.48389C347.239 3.4943 347.833 3.57764 348.307 3.73389C349.114 3.99951 349.768 4.48649 350.268 5.19482C350.669 5.76774 350.942 6.38753 351.088 7.0542C351.234 7.72087 351.307 8.35628 351.307 8.96045C351.307 10.4917 350.999 11.7886 350.385 12.8511C349.551 14.2834 348.265 14.9995 346.525 14.9995H341.564V3.48389H346.525ZM353.687 3.48389H356.132V10.562C356.132 11.3537 356.226 11.9318 356.413 12.2964C356.705 12.9422 357.341 13.2651 358.32 13.2651C359.294 13.2651 359.926 12.9422 360.218 12.2964C360.406 11.9318 360.499 11.3537 360.499 10.562V3.48389H362.945V10.562C362.945 11.786 362.755 12.7391 362.374 13.4214C361.666 14.6714 360.314 15.2964 358.32 15.2964C356.325 15.2964 354.971 14.6714 354.257 13.4214C353.877 12.7391 353.687 11.786 353.687 10.562V3.48389ZM365.809 3.48389H368.255V10.562C368.255 11.3537 368.348 11.9318 368.536 12.2964C368.828 12.9422 369.463 13.2651 370.442 13.2651C371.416 13.2651 372.049 12.9422 372.341 12.2964C372.528 11.9318 372.622 11.3537 372.622 10.562V3.48389H375.067V10.562C375.067 11.786 374.877 12.7391 374.497 13.4214C373.789 14.6714 372.437 15.2964 370.442 15.2964C368.447 15.2964 367.093 14.6714 366.38 13.4214C365.999 12.7391 365.809 11.786 365.809 10.562V3.48389ZM386.447 5.52295H380.354V7.96826H385.947V9.96826H380.354V12.9292H386.729V14.9995H378.002V3.48389H386.447V5.52295ZM397.531 3.48389V5.52295H394.086V14.9995H391.664V5.52295H388.203V3.48389H397.531ZM411.003 7.14795C411.003 6.54899 410.844 6.12191 410.526 5.8667C410.213 5.61149 409.773 5.48389 409.206 5.48389H406.963V8.87451H409.206C409.773 8.87451 410.213 8.73649 410.526 8.46045C410.844 8.18441 411.003 7.74691 411.003 7.14795ZM413.385 7.13232C413.385 8.4917 413.042 9.45264 412.354 10.0151C411.667 10.5776 410.685 10.8589 409.409 10.8589H406.963V14.9995H404.573V3.48389H409.588C410.745 3.48389 411.667 3.78076 412.354 4.37451C413.042 4.96826 413.385 5.88753 413.385 7.13232ZM418.156 5.48389V8.57764H420.883C421.424 8.57764 421.831 8.51514 422.102 8.39014C422.581 8.17139 422.82 7.7391 422.82 7.09326C422.82 6.39535 422.589 5.9266 422.125 5.68701C421.865 5.5516 421.474 5.48389 420.953 5.48389H418.156ZM421.453 3.48389C422.26 3.49951 422.88 3.59847 423.312 3.78076C423.75 3.96305 424.12 4.23128 424.422 4.58545C424.672 4.87712 424.87 5.20003 425.016 5.5542C425.161 5.90837 425.234 6.31201 425.234 6.76514C425.234 7.31201 425.096 7.85107 424.82 8.38232C424.544 8.90837 424.089 9.28076 423.453 9.49951C423.984 9.71305 424.359 10.0177 424.578 10.4136C424.802 10.8042 424.914 11.4032 424.914 12.2104V12.9839C424.914 13.5099 424.935 13.8667 424.977 14.0542C425.039 14.3511 425.185 14.5698 425.414 14.7104V14.9995H422.766C422.693 14.7443 422.641 14.5386 422.609 14.3823C422.547 14.0594 422.513 13.7287 422.508 13.3901L422.492 12.3198C422.482 11.5854 422.346 11.0959 422.086 10.8511C421.831 10.6063 421.349 10.4839 420.641 10.4839H418.156V14.9995H415.805V3.48389H421.453ZM432.966 13.2808C433.919 13.2808 434.675 12.9292 435.232 12.2261C435.794 11.5229 436.076 10.5229 436.076 9.22607C436.076 7.93441 435.794 6.93701 435.232 6.23389C434.675 5.52555 433.919 5.17139 432.966 5.17139C432.013 5.17139 431.253 5.52295 430.685 6.22607C430.117 6.9292 429.833 7.9292 429.833 9.22607C429.833 10.5229 430.117 11.5229 430.685 12.2261C431.253 12.9292 432.013 13.2808 432.966 13.2808ZM438.482 9.22607C438.482 11.2938 437.901 12.8771 436.74 13.9761C435.87 14.8719 434.612 15.3198 432.966 15.3198C431.32 15.3198 430.063 14.8719 429.193 13.9761C428.026 12.8771 427.443 11.2938 427.443 9.22607C427.443 7.1167 428.026 5.53337 429.193 4.47607C430.063 3.58024 431.32 3.13232 432.966 3.13232C434.612 3.13232 435.87 3.58024 436.74 4.47607C437.901 5.53337 438.482 7.1167 438.482 9.22607ZM440.386 9.33545C440.386 7.32503 440.925 5.77555 442.003 4.68701C442.94 3.7391 444.133 3.26514 445.581 3.26514C447.518 3.26514 448.935 3.90055 449.831 5.17139C450.326 5.88493 450.591 6.60107 450.628 7.31982H448.222C448.065 6.76774 447.865 6.35107 447.62 6.06982C447.182 5.56982 446.534 5.31982 445.675 5.31982C444.8 5.31982 444.11 5.67399 443.604 6.38232C443.099 7.08545 442.847 8.08285 442.847 9.37451C442.847 10.6662 443.112 11.6349 443.643 12.2808C444.18 12.9214 444.86 13.2417 445.682 13.2417C446.526 13.2417 447.169 12.9657 447.612 12.4136C447.857 12.1167 448.06 11.6714 448.222 11.0776H450.604C450.396 12.3328 449.862 13.3537 449.003 14.1401C448.149 14.9266 447.052 15.3198 445.714 15.3198C444.057 15.3198 442.755 14.7886 441.807 13.7261C440.86 12.6584 440.386 11.1948 440.386 9.33545ZM461.524 5.52295H455.43V7.96826H461.024V9.96826H455.43V12.9292H461.805V14.9995H453.078V3.48389H461.524V5.52295ZM465.982 11.4448C466.055 11.9709 466.198 12.3641 466.412 12.6245C466.802 13.0985 467.472 13.3354 468.42 13.3354C468.987 13.3354 469.448 13.2729 469.802 13.1479C470.474 12.9084 470.81 12.4631 470.81 11.812C470.81 11.4318 470.644 11.1375 470.31 10.9292C469.977 10.7261 469.454 10.5464 468.74 10.3901L467.521 10.1167C466.323 9.84587 465.495 9.5516 465.037 9.23389C464.261 8.70264 463.873 7.87191 463.873 6.7417C463.873 5.71045 464.248 4.85368 464.998 4.17139C465.748 3.4891 466.849 3.14795 468.302 3.14795C469.516 3.14795 470.55 3.47087 471.404 4.1167C472.263 4.75732 472.714 5.68962 472.756 6.91357H470.443C470.401 6.22087 470.099 5.72868 469.537 5.43701C469.162 5.2443 468.696 5.14795 468.138 5.14795C467.519 5.14795 467.024 5.27295 466.654 5.52295C466.284 5.77295 466.099 6.12191 466.099 6.56982C466.099 6.98128 466.282 7.28857 466.646 7.4917C466.881 7.62712 467.381 7.78597 468.146 7.96826L470.131 8.44482C471 8.65316 471.657 8.9318 472.099 9.28076C472.787 9.82243 473.131 10.6063 473.131 11.6323C473.131 12.6844 472.727 13.5594 471.92 14.2573C471.118 14.95 469.982 15.2964 468.513 15.2964C467.013 15.2964 465.834 14.9552 464.974 14.2729C464.115 13.5854 463.685 12.6427 463.685 11.4448H465.982ZM477.214 11.4448C477.287 11.9709 477.43 12.3641 477.644 12.6245C478.034 13.0985 478.704 13.3354 479.652 13.3354C480.219 13.3354 480.68 13.2729 481.034 13.1479C481.706 12.9084 482.042 12.4631 482.042 11.812C482.042 11.4318 481.876 11.1375 481.542 10.9292C481.209 10.7261 480.685 10.5464 479.972 10.3901L478.753 10.1167C477.555 9.84587 476.727 9.5516 476.269 9.23389C475.493 8.70264 475.105 7.87191 475.105 6.7417C475.105 5.71045 475.48 4.85368 476.23 4.17139C476.98 3.4891 478.081 3.14795 479.534 3.14795C480.748 3.14795 481.782 3.47087 482.636 4.1167C483.495 4.75732 483.946 5.68962 483.987 6.91357H481.675C481.633 6.22087 481.331 5.72868 480.769 5.43701C480.394 5.2443 479.928 5.14795 479.37 5.14795C478.751 5.14795 478.256 5.27295 477.886 5.52295C477.516 5.77295 477.331 6.12191 477.331 6.56982C477.331 6.98128 477.514 7.28857 477.878 7.4917C478.112 7.62712 478.612 7.78597 479.378 7.96826L481.362 8.44482C482.232 8.65316 482.889 8.9318 483.331 9.28076C484.019 9.82243 484.362 10.6063 484.362 11.6323C484.362 12.6844 483.959 13.5594 483.152 14.2573C482.349 14.95 481.214 15.2964 479.745 15.2964C478.245 15.2964 477.066 14.9552 476.206 14.2729C475.347 13.5854 474.917 12.6427 474.917 11.4448H477.214Z"
                fill="#FCAB5F" />
            <path
                d="M153.609 114V79.4526H160.758V92.6245H174.258V79.4526H181.43V114H174.258V98.5776H160.758V114H153.609ZM200.946 109.289C202.899 109.289 204.399 108.593 205.446 107.203C206.493 105.812 207.016 103.835 207.016 101.273C207.016 98.7104 206.493 96.7417 205.446 95.3667C204.399 93.9761 202.899 93.2808 200.946 93.2808C198.993 93.2808 197.485 93.9761 196.422 95.3667C195.375 96.7417 194.852 98.7104 194.852 101.273C194.852 103.835 195.375 105.812 196.422 107.203C197.485 108.593 198.993 109.289 200.946 109.289ZM214.024 101.273C214.024 105.023 212.946 108.234 210.789 110.906C208.633 113.562 205.36 114.89 200.969 114.89C196.578 114.89 193.305 113.562 191.149 110.906C188.993 108.234 187.914 105.023 187.914 101.273C187.914 97.5854 188.993 94.3901 191.149 91.687C193.305 88.9839 196.578 87.6323 200.969 87.6323C205.36 87.6323 208.633 88.9839 210.789 91.687C212.946 94.3901 214.024 97.5854 214.024 101.273ZM232.555 88.4526H239.329L243.219 106.851L247.204 88.4526H254.165L246.758 114H239.891L235.883 95.3901L231.829 114H224.891L217.719 88.4526H224.891L228.876 106.781L232.555 88.4526ZM282.134 85.4526V108H288.79C292.197 108 294.572 106.32 295.915 102.96C296.65 101.117 297.017 98.9214 297.017 96.3745C297.017 92.8589 296.462 90.1636 295.353 88.2886C294.259 86.3979 292.072 85.4526 288.79 85.4526H282.134ZM290.009 79.4526C292.15 79.4839 293.931 79.7339 295.353 80.2026C297.775 80.9995 299.736 82.4604 301.236 84.5854C302.439 86.3042 303.259 88.1636 303.697 90.1636C304.134 92.1636 304.353 94.0698 304.353 95.8823C304.353 100.476 303.431 104.367 301.587 107.554C299.087 111.851 295.228 114 290.009 114H275.126V79.4526H290.009ZM317.611 88.4526V103.851C317.611 105.304 317.783 106.398 318.127 107.132C318.736 108.429 319.931 109.078 321.712 109.078C323.994 109.078 325.556 108.156 326.4 106.312C326.837 105.312 327.056 103.992 327.056 102.351V88.4526H333.83V114H327.337V110.39C327.275 110.468 327.119 110.703 326.869 111.093C326.619 111.484 326.322 111.828 325.978 112.125C324.931 113.062 323.916 113.703 322.931 114.046C321.962 114.39 320.822 114.562 319.509 114.562C315.728 114.562 313.181 113.203 311.869 110.484C311.134 108.984 310.767 106.773 310.767 103.851V88.4526H317.611ZM348.635 88.4526V103.851C348.635 105.304 348.807 106.398 349.15 107.132C349.76 108.429 350.955 109.078 352.736 109.078C355.018 109.078 356.58 108.156 357.424 106.312C357.861 105.312 358.08 103.992 358.08 102.351V88.4526H364.853V114H358.361V110.39C358.299 110.468 358.143 110.703 357.893 111.093C357.643 111.484 357.346 111.828 357.002 112.125C355.955 113.062 354.939 113.703 353.955 114.046C352.986 114.39 351.846 114.562 350.533 114.562C346.752 114.562 344.205 113.203 342.893 110.484C342.158 108.984 341.791 106.773 341.791 103.851V88.4526H348.635ZM383.08 93.2808C381.533 93.2808 380.33 93.7651 379.471 94.7339C378.627 95.7026 378.096 97.0151 377.877 98.6714H388.26C388.151 96.9058 387.612 95.5698 386.643 94.6636C385.69 93.7417 384.502 93.2808 383.08 93.2808ZM383.08 87.7729C385.205 87.7729 387.119 88.1714 388.822 88.9683C390.526 89.7651 391.932 91.0229 393.041 92.7417C394.041 94.2573 394.69 96.0151 394.987 98.0151C395.158 99.187 395.229 100.875 395.197 103.078H377.713C377.807 105.64 378.612 107.437 380.127 108.468C381.049 109.109 382.158 109.429 383.455 109.429C384.83 109.429 385.947 109.039 386.807 108.257C387.276 107.835 387.69 107.25 388.049 106.5H394.869C394.697 108.015 393.908 109.554 392.502 111.117C390.315 113.601 387.252 114.843 383.315 114.843C380.065 114.843 377.197 113.796 374.713 111.703C372.229 109.609 370.987 106.203 370.987 101.484C370.987 97.062 372.104 93.6714 374.338 91.312C376.588 88.9526 379.502 87.7729 383.08 87.7729ZM398.776 93.4448V88.687H402.338V81.562H408.948V88.687H413.096V93.4448H408.948V106.945C408.948 107.992 409.081 108.648 409.346 108.914C409.612 109.164 410.424 109.289 411.784 109.289C411.987 109.289 412.198 109.289 412.417 109.289C412.651 109.273 412.878 109.257 413.096 109.242V114.234L409.932 114.351C406.776 114.46 404.62 113.914 403.463 112.71C402.713 111.945 402.338 110.765 402.338 109.171V93.4448H398.776ZM439.355 79.4526L443.925 99.2339L444.909 104.742L445.917 99.3511L449.808 79.4526H457.425L461.527 99.2339L462.581 104.742L463.636 99.4448L468.253 79.4526H475.589L465.862 114H458.972L454.8 93.7964L453.581 87.1167L452.362 93.7964L448.191 114H441.487L431.691 79.4526H439.355ZM491.73 109.289C493.683 109.289 495.183 108.593 496.23 107.203C497.277 105.812 497.8 103.835 497.8 101.273C497.8 98.7104 497.277 96.7417 496.23 95.3667C495.183 93.9761 493.683 93.2808 491.73 93.2808C489.777 93.2808 488.269 93.9761 487.207 95.3667C486.16 96.7417 485.636 98.7104 485.636 101.273C485.636 103.835 486.16 105.812 487.207 107.203C488.269 108.593 489.777 109.289 491.73 109.289ZM504.808 101.273C504.808 105.023 503.73 108.234 501.574 110.906C499.418 113.562 496.144 114.89 491.753 114.89C487.363 114.89 484.089 113.562 481.933 110.906C479.777 108.234 478.699 105.023 478.699 101.273C478.699 97.5854 479.777 94.3901 481.933 91.687C484.089 88.9839 487.363 87.6323 491.753 87.6323C496.144 87.6323 499.418 88.9839 501.574 91.687C503.73 94.3901 504.808 97.5854 504.808 101.273ZM525.168 87.8433C525.293 87.8433 525.394 87.8511 525.473 87.8667C525.566 87.8667 525.762 87.8745 526.058 87.8901V94.7339C525.637 94.687 525.262 94.6558 524.933 94.6401C524.605 94.6245 524.34 94.6167 524.137 94.6167C521.449 94.6167 519.644 95.4917 518.723 97.2417C518.207 98.2261 517.949 99.7417 517.949 101.789V114H511.223V88.4526H517.598V92.9058C518.629 91.2026 519.527 90.0386 520.293 89.4136C521.543 88.3667 523.168 87.8433 525.168 87.8433ZM531.606 79.5698H538.168V98.1792L546.488 88.5698H554.762L545.832 98.3433L555.113 114H547.051L540.934 103.078L538.168 105.96V114H531.606V79.5698ZM565.278 105.843C565.418 107.031 565.723 107.875 566.192 108.375C567.02 109.265 568.551 109.71 570.786 109.71C572.098 109.71 573.137 109.515 573.903 109.125C574.684 108.734 575.075 108.148 575.075 107.367C575.075 106.617 574.762 106.046 574.137 105.656C573.512 105.265 571.192 104.593 567.176 103.64C564.286 102.921 562.247 102.023 561.059 100.945C559.872 99.8823 559.278 98.3511 559.278 96.3511C559.278 93.9917 560.2 91.9683 562.043 90.2808C563.903 88.5776 566.512 87.7261 569.872 87.7261C573.059 87.7261 575.653 88.3667 577.653 89.6479C579.668 90.9136 580.825 93.1089 581.122 96.2339H574.442C574.348 95.3745 574.106 94.6948 573.715 94.1948C572.981 93.2886 571.731 92.8354 569.965 92.8354C568.512 92.8354 567.473 93.062 566.848 93.5151C566.239 93.9683 565.934 94.4995 565.934 95.1089C565.934 95.8745 566.262 96.4292 566.918 96.7729C567.575 97.1323 569.895 97.7495 573.879 98.6245C576.536 99.2495 578.528 100.195 579.856 101.46C581.168 102.742 581.825 104.343 581.825 106.265C581.825 108.796 580.879 110.867 578.989 112.476C577.114 114.07 574.207 114.867 570.27 114.867C566.254 114.867 563.286 114.023 561.364 112.335C559.457 110.632 558.504 108.468 558.504 105.843H565.278Z"
                fill="white" />
            
        </svg>