<svg width="115" height="29" viewBox="0 0 115 29" fill="none" xmlns="http://www.w3.org/2000/svg">
<path fill-rule="evenodd" clip-rule="evenodd" d="M38.9178 21.6481H33.5576L32.2704 25.5332H30L35.0771 11.1595H37.4359L42.513 25.5332H40.2039L38.9178 21.6481ZM34.1128 19.8554H38.3616L36.2671 13.5502H36.2085L34.1128 19.8554ZM53.4778 20.294C53.4778 23.5505 51.7725 25.6428 49.1992 25.6428C47.869 25.714 46.6161 25.0018 45.9733 23.8094H45.9246V29H43.8201V15.0536H45.8572V16.7966H45.8959C46.5672 15.6116 47.8215 14.8998 49.1605 14.944C51.7625 14.944 53.4778 17.0464 53.4778 20.294ZM51.3147 20.294C51.3147 18.1723 50.242 16.7774 48.6053 16.7774C46.9974 16.7774 45.9158 18.2017 45.9158 20.294C45.9158 22.4055 46.9974 23.8196 48.6053 23.8196C50.242 23.8196 51.3147 22.4349 51.3147 20.294ZM64.7622 20.294C64.7622 23.5505 63.0569 25.6428 60.4835 25.6428C59.1534 25.714 57.9004 25.0018 57.2577 23.8094H57.209V29H55.1045V15.0536H57.1415V16.7966H57.1802C57.8515 15.6116 59.1058 14.8998 60.4448 14.944C63.047 14.944 64.7622 17.0464 64.7622 20.294ZM62.5991 20.294C62.5991 18.1723 61.5264 16.7774 59.8897 16.7774C58.2817 16.7774 57.2002 18.2017 57.2002 20.294C57.2002 22.4055 58.2817 23.8196 59.8897 23.8196C61.5264 23.8196 62.5991 22.4349 62.5991 20.294ZM72.2202 21.5283C72.3762 22.9537 73.7309 23.8896 75.5821 23.8896C77.3559 23.8896 78.6321 22.9537 78.6321 21.6684C78.6321 20.5528 77.8624 19.8847 76.0399 19.4269L74.2174 18.9782C71.6352 18.3406 70.4364 17.1063 70.4364 15.1033C70.4364 12.6233 72.5509 10.9198 75.5533 10.9198C78.5248 10.9198 80.5619 12.6233 80.6304 15.1033H78.506C78.3788 13.6689 77.2188 12.803 75.5235 12.803C73.8281 12.803 72.6681 13.679 72.6681 14.9541C72.6681 15.9703 73.409 16.5682 75.2215 17.026L76.7709 17.4148C79.6561 18.1123 80.8549 19.2969 80.8549 21.3994C80.8549 24.0885 78.7592 25.7727 75.4261 25.7727C72.3076 25.7727 70.202 24.1281 70.0659 21.5282L72.2202 21.5283ZM85.3968 12.5736V15.0536H87.3464V16.7571H85.3968V22.5343C85.3968 23.4318 85.7871 23.8501 86.6442 23.8501C86.8756 23.846 87.1067 23.8293 87.3365 23.8003V25.4936C86.9511 25.5672 86.5595 25.6005 86.1675 25.5931C84.0918 25.5931 83.2823 24.7962 83.2823 22.7638V16.7571H81.7916V15.0536H83.2823V12.5736H85.3968ZM88.4756 20.294C88.4756 16.9967 90.3755 14.9248 93.3381 14.9248C96.3107 14.9248 98.2018 16.9967 98.2018 20.294C98.2018 23.6003 96.3207 25.6632 93.3381 25.6632C90.3566 25.6632 88.4756 23.6003 88.4756 20.294ZM96.0575 20.294C96.0575 18.0321 95.0434 16.6972 93.3381 16.6972C91.6328 16.6972 90.6199 18.0423 90.6199 20.294C90.6199 22.5649 91.6328 23.8897 93.3381 23.8897C95.0434 23.8897 96.0575 22.5649 96.0575 20.294ZM99.9368 15.0536H101.944V16.8373H101.993C102.273 15.6891 103.302 14.8988 104.459 14.9439C104.701 14.9431 104.943 14.97 105.18 15.0242V17.0362C104.874 16.9406 104.554 16.8967 104.234 16.9063C103.616 16.8806 103.017 17.1326 102.595 17.5962C102.174 18.0597 101.971 18.6885 102.041 19.3173V25.5332H99.9368L99.9368 15.0536ZM114.883 22.4552C114.6 24.3576 112.787 25.6632 110.468 25.6632C107.486 25.6632 105.634 23.6206 105.634 20.3437C105.634 17.0566 107.496 14.9247 110.38 14.9247C113.216 14.9247 115 16.9164 115 20.0939V20.8309H107.759V20.9609C107.691 21.7411 107.955 22.5133 108.482 23.0813C109.01 23.6492 109.751 23.958 110.517 23.9292C111.538 24.027 112.501 23.4276 112.884 22.4552L114.883 22.4552ZM107.769 19.3275L112.894 19.3275C112.933 18.6264 112.683 17.9409 112.206 17.436C111.728 16.9311 111.066 16.6527 110.38 16.6678C109.687 16.6635 109.022 16.9421 108.532 17.4416C108.042 17.941 107.767 18.62 107.769 19.3275ZM33.849 0.340302C34.7424 0.27477 35.6175 0.622206 36.2334 1.28698C36.8493 1.95176 37.1411 2.8638 37.0284 3.77208C37.0284 5.97854 35.8617 7.24686 33.849 7.24686H31.4083V0.340302H33.849ZM32.4578 6.27013H33.7318C34.3703 6.30914 34.992 6.05201 35.4242 5.57014C35.8565 5.08826 36.0534 4.43295 35.9601 3.78615C36.0466 3.14204 35.8469 2.49213 35.4157 2.01419C34.9845 1.53625 34.3669 1.28028 33.7318 1.31631H32.4578V6.27013ZM38.2139 4.63846C38.1265 3.70423 38.5647 2.8001 39.3449 2.30526C40.1251 1.81041 41.1122 1.81041 41.8924 2.30526C42.6725 2.8001 43.1108 3.70423 43.0234 4.63846C43.1125 5.57369 42.6746 6.47957 41.8938 6.97548C41.1129 7.47139 40.1244 7.47139 39.3435 6.97548C38.5627 6.47957 38.1248 5.57369 38.2139 4.63846ZM41.9883 4.63846C41.9883 3.50867 41.4917 2.84797 40.6203 2.84797C39.7456 2.84797 39.2535 3.50867 39.2535 4.63847C39.2535 5.77731 39.7456 6.43292 40.6203 6.43292C41.4917 6.4329 41.9883 5.77278 41.9883 4.63846ZM49.4165 7.24676H48.3725L47.3186 3.40805H47.239L46.1895 7.24676H45.1555L43.7499 2.03466H44.7707L45.6841 6.0118H45.7593L46.8077 2.03466H47.7731L48.8215 6.0118H48.9011L49.8102 2.03466H50.8165L49.4165 7.24676ZM51.9987 2.03466H52.9674V2.86265H53.0426C53.3041 2.25303 53.9152 1.88012 54.5643 1.93405C55.0669 1.89543 55.5594 2.0925 55.9028 2.46962C56.2461 2.84675 56.4031 3.363 56.3293 3.87262V7.2467H55.323V4.13092C55.323 3.29333 54.9669 2.87678 54.2226 2.87678C53.8817 2.86055 53.5509 2.9973 53.3168 3.25118C53.0828 3.50506 52.9689 3.85074 53.005 4.1976V7.24676H51.9987L51.9987 2.03466ZM57.9328 0H58.9392V7.24675H57.9328V0ZM60.3381 4.63846C60.2507 3.70417 60.6891 2.80002 61.4693 2.30516C62.2495 1.81031 63.2367 1.81031 64.0169 2.30516C64.7972 2.80002 65.2355 3.70417 65.1481 4.63846C65.2371 5.57372 64.7992 6.47958 64.0183 6.97547C63.2374 7.47136 62.2488 7.47136 61.468 6.97547C60.6871 6.47958 60.2491 5.57372 60.3381 4.63846ZM64.1125 4.63846C64.1125 3.50867 63.6159 2.84797 62.7445 2.84797C61.8698 2.84797 61.3777 3.50867 61.3777 4.63847C61.3777 5.77731 61.8698 6.43292 62.7445 6.43292C63.6159 6.4329 64.1125 5.77278 64.1125 4.63846ZM66.2076 5.77278C66.2076 4.83457 66.891 4.2937 68.1041 4.21683L69.4854 4.13545V3.68557C69.4854 3.13507 69.1293 2.82423 68.4414 2.82423C67.8797 2.82423 67.4904 3.03504 67.3787 3.40354H66.4044C66.5073 2.50829 67.3311 1.93407 68.4879 1.93407C69.7663 1.93407 70.4873 2.58458 70.4873 3.68557V7.24677H69.5186V6.5143H69.4389C69.1099 7.04921 68.5248 7.36183 67.9073 7.33264C67.4744 7.37867 67.0427 7.23537 66.7188 6.93818C66.395 6.64098 66.2093 6.21763 66.2076 5.77278ZM69.4854 5.32741V4.89166L68.2402 4.97304C67.5379 5.02108 67.2194 5.26524 67.2194 5.72473C67.2194 6.19382 67.6176 6.46681 68.165 6.46681C68.4891 6.50034 68.8126 6.398 69.0615 6.18322C69.3104 5.96843 69.4634 5.6596 69.4854 5.32741ZM71.8099 4.63846C71.8099 2.99152 72.6382 1.9482 73.9266 1.9482C74.5771 1.91756 75.1864 2.27386 75.4903 2.86261H75.5655V0H76.5718V7.24675H75.6075V6.42327H75.5279C75.2011 7.00714 74.5843 7.35742 73.9266 7.33264C72.6294 7.3327 71.8099 6.28935 71.8099 4.63846ZM72.8495 4.63846C72.8495 5.74395 73.3593 6.40918 74.2119 6.40918C75.0601 6.40918 75.5843 5.73436 75.5843 4.64298C75.5843 3.5567 75.0546 2.87227 74.2119 2.87227C73.3648 2.87227 72.8495 3.542 72.8495 4.63846ZM80.7355 4.63846C80.648 3.70423 81.0863 2.8001 81.8665 2.30526C82.6466 1.81041 83.6338 1.81041 84.414 2.30526C85.1941 2.8001 85.6324 3.70423 85.5449 4.63846C85.634 5.57369 85.1962 6.47957 84.4153 6.97548C83.6345 7.47139 82.646 7.47139 81.8651 6.97548C81.0842 6.47957 80.6464 5.57369 80.7355 4.63846ZM84.5098 4.63846C84.5098 3.50867 84.0133 2.84797 83.1419 2.84797C82.2671 2.84797 81.775 3.50867 81.775 4.63847C81.775 5.77731 82.2672 6.43292 83.1419 6.43292C84.0133 6.4329 84.5098 5.77278 84.5098 4.63846ZM86.8952 2.03466H87.864V2.86265H87.9392C88.2007 2.25303 88.8118 1.88012 89.4609 1.93405C89.9634 1.89543 90.4559 2.0925 90.7993 2.46962C91.1427 2.84675 91.2996 3.363 91.2258 3.87262V7.2467H90.2195V4.13092C90.2195 3.29333 89.8634 2.87678 89.1191 2.87678C88.7782 2.86055 88.4474 2.9973 88.2134 3.25118C87.9793 3.50506 87.8655 3.85074 87.9016 4.1976V7.24676H86.8952V2.03466ZM96.9123 0.737009V2.0584H98.017V2.92483H96.9123V5.60492C96.9123 6.15088 97.1323 6.38995 97.6333 6.38995C97.7616 6.38953 97.8897 6.3816 98.017 6.36621V7.22302C97.8363 7.25607 97.6532 7.27365 97.4696 7.27558C96.3505 7.27558 95.9048 6.87317 95.9048 5.86828V2.92478H95.0953V2.05835H95.9048V0.737009H96.9123ZM99.3916 0H100.389V2.87225H100.469C100.743 2.2573 101.365 1.88392 102.024 1.93858C102.523 1.91078 103.009 2.11219 103.349 2.48795C103.688 2.86371 103.846 3.37467 103.78 3.88167V7.24676H102.772V4.13542C102.772 3.30291 102.393 2.88128 101.682 2.88128C101.332 2.85193 100.987 2.98203 100.739 3.2368C100.492 3.49157 100.367 3.84502 100.398 4.20267V7.24674H99.3917L99.3916 0ZM109.648 5.83946C109.365 6.82261 108.435 7.45783 107.438 7.34736C106.758 7.3657 106.105 7.07763 105.651 6.55956C105.197 6.0415 104.99 5.34582 105.082 4.65711C104.992 3.96648 105.199 3.26968 105.65 2.74724C106.101 2.2248 106.752 1.92812 107.434 1.93406C108.852 1.93406 109.708 2.92487 109.708 4.56157V4.92049H106.108V4.97814C106.076 5.3649 106.205 5.74746 106.464 6.03173C106.722 6.316 107.086 6.47561 107.466 6.4713C107.958 6.53171 108.437 6.28209 108.679 5.83942L109.648 5.83946ZM106.108 4.15974H108.683C108.709 3.80601 108.587 3.45766 108.348 3.20053C108.109 2.9434 107.775 2.8014 107.428 2.80953C107.076 2.80502 106.738 2.94584 106.489 3.20005C106.241 3.45427 106.103 3.80034 106.108 4.15974ZM19.0342 14.651C19.0368 17.0793 20.495 19.2707 22.7375 20.2167C22.3062 21.6139 21.6561 22.9344 20.8113 24.1292C19.6767 25.8218 18.487 27.4755 16.5989 27.5061C14.7643 27.5483 14.1477 26.4293 12.0434 26.4293C9.91941 26.4293 9.26223 27.4755 7.50262 27.5483C5.70446 27.6147 4.33023 25.7417 3.15438 24.0649C0.804177 20.6406 -1.02587 14.4147 1.42757 10.1785C2.57968 8.11377 4.73382 6.80359 7.10186 6.72729C8.90165 6.69036 10.573 7.93949 11.6796 7.93949C12.7651 7.93949 14.8303 6.44522 16.9606 6.66822C18.9854 6.7314 20.8618 7.74306 22.0237 9.39802C20.1902 10.5222 19.0619 12.5047 19.0342 14.651ZM15.5689 4.41618C14.5701 5.6551 13.0567 6.36872 11.4628 6.35235C11.3614 4.79894 11.8833 3.26906 12.9137 2.09967C13.9571 0.914429 15.4099 0.164749 16.9828 0C17.1056 1.59945 16.5984 3.18365 15.5689 4.41618Z" fill="#131313"/>
</svg>
