<svg width="127" height="31" viewBox="0 0 127 31" fill="none" xmlns="http://www.w3.org/2000/svg">
<path fill-rule="evenodd" clip-rule="evenodd" d="M39.3219 3.86668C39.3603 4.71314 39.0571 5.53867 38.4831 6.15062C37.8417 6.83101 36.947 7.20058 36.0227 7.16697C34.6051 7.15564 33.3322 6.27763 32.7926 4.93889C32.2531 3.60015 32.552 2.06159 33.5512 1.03459C34.2004 0.357772 35.0952 -0.0142947 36.0227 0.00681418C36.4955 0.00520564 36.9636 0.102361 37.3983 0.292307C37.803 0.458982 38.1632 0.721182 38.4496 1.05743L37.8568 1.66267C37.4043 1.11301 36.7249 0.812692 36.0227 0.851873C35.3169 0.848337 34.6401 1.13861 34.1484 1.65575C33.6568 2.17289 33.3927 2.87227 33.417 3.5926C33.402 4.68112 34.0298 5.67195 35.0083 6.10409C35.9868 6.53624 37.1239 6.32482 37.8904 5.56821C38.2345 5.18741 38.433 4.6929 38.4496 4.17501H36.0227V3.35279H39.2771C39.307 3.52239 39.3219 3.69437 39.3219 3.86668ZM44.4439 1.01175H41.4243V3.18149H44.1755V4.00371H41.4243V6.17346H44.4439V7.01852H40.5297V0.16669H44.4439V1.01175ZM48.112 7.01852H47.2509V1.01175H45.3721V0.16669H50.0356V1.01175H48.112V7.01852ZM53.3235 7.01852V0.16669H54.1846V7.01852H53.3235ZM58.0094 7.01852H57.1483V1.01175H55.2694V0.16669H59.877V1.01175H58.0094V7.01852ZM68.6113 6.12778C67.2502 7.50983 65.0516 7.50983 63.6906 6.12778C62.3712 4.70173 62.3712 2.47206 63.6906 1.04601C64.3414 0.376524 65.2271 0 66.1509 0C67.0748 0 67.9604 0.376524 68.6113 1.04601C69.9363 2.46977 69.9363 4.70402 68.6113 6.12778ZM64.328 5.5568C65.336 6.58179 66.9658 6.58179 67.9738 5.5568C68.9638 4.44243 68.9638 2.74278 67.9738 1.62841C66.9658 0.60342 65.336 0.60342 64.328 1.62841C63.3381 2.74278 63.3381 4.44243 64.328 5.5568ZM70.8144 7.01852V0.16669H71.8657L75.1312 5.4997V0.16669H75.9923V7.01852H75.0977L71.6867 1.43428V7.01852H70.8144ZM62.4939 17.0108C63.7639 16.9859 64.9893 17.4885 65.8895 18.4034C66.7898 19.3184 67.2877 20.5673 67.2693 21.8641C67.2692 24.5416 65.1458 26.7133 62.5237 26.7175C59.9017 26.7216 57.7716 24.5568 57.7634 21.8793C57.7552 19.2018 59.8719 17.0234 62.4939 17.0108ZM62.4939 24.8104C63.2357 24.7929 63.9391 24.4701 64.4445 23.9153C64.9499 23.3606 65.2144 22.6209 65.178 21.8641C65.1751 20.6544 64.4483 19.5694 63.3452 19.1281C62.2421 18.6868 60.987 18.9788 60.18 19.8646C59.3731 20.7504 59.1785 22.0498 59.6892 23.1414C60.1999 24.233 61.3121 24.8948 62.4939 24.8104ZM52.0822 17.0108H52.071C53.3409 16.9859 54.5663 17.4885 55.4666 18.4034C56.3668 19.3184 56.8647 20.5673 56.8463 21.8641C56.8463 24.5431 54.7206 26.7154 52.0971 26.7175C49.4735 26.7196 47.3445 24.5507 47.3404 21.8717C47.3363 19.1928 49.4586 17.0171 52.0822 17.0108ZM52.0822 24.8104H52.071C52.8128 24.7929 53.5162 24.4701 54.0215 23.9153C54.5269 23.3606 54.7914 22.6209 54.755 21.8641C54.7518 20.6534 54.0236 19.568 52.9191 19.1276C51.8146 18.6873 50.5588 18.9817 49.753 19.8699C48.9472 20.7581 48.7556 22.0592 49.2699 23.1501C49.7842 24.241 50.8997 24.8996 52.0822 24.8104ZM39.6797 18.5068L46.4681 18.4497C46.5461 18.8751 46.5835 19.3073 46.5799 19.7401C46.6325 21.5167 46.007 23.2447 44.8353 24.5592C43.4963 25.9909 41.6164 26.7612 39.6797 26.6718C36.9722 26.7794 34.424 25.3658 33.0388 22.9878C31.6537 20.6098 31.6537 17.6485 33.0388 15.2705C34.424 12.8924 36.9722 11.4788 39.6797 11.5864C41.5817 11.5696 43.4093 12.3399 44.7458 13.7219L43.3255 15.1722C42.3456 14.2061 41.0305 13.6764 39.6685 13.6991C36.7039 13.6991 34.3005 16.1532 34.3005 19.1805C34.3005 22.2078 36.7039 24.662 39.6685 24.662C41.0626 24.7187 42.4152 24.1712 43.3926 23.1546C44.0411 22.444 44.4352 21.5305 44.511 20.5623H39.6797V18.5068ZM90.3519 20.1055L90.5867 20.6194L84.2234 23.303C84.6222 24.2305 85.5358 24.8148 86.5271 24.7762C87.4843 24.7786 88.3721 24.2668 88.8645 23.4286L90.4861 24.5706C89.6033 25.9198 88.1162 26.7263 86.5271 26.7175C85.264 26.7364 84.0477 26.23 83.1576 25.3147C82.2676 24.3994 81.7803 23.1538 81.8077 21.8641C81.7305 20.604 82.1674 19.3674 83.0149 18.448C83.8623 17.5285 85.0446 17.0083 86.2811 17.0108C88.1352 17.0805 89.7548 18.3117 90.3519 20.1055ZM83.8655 21.7271L88.1152 19.9228C87.7809 19.2498 87.0856 18.8454 86.3482 18.895C85.6486 18.9272 84.9912 19.2456 84.5242 19.7784C84.0571 20.3112 83.8197 21.0136 83.8655 21.7271ZM78.6987 26.432V12.1574H80.79V26.432H78.6987ZM75.2766 18.0956V17.2963H77.2002V25.941C77.2002 29.5268 75.176 30.9999 72.7268 30.9999C70.8807 31.0112 69.2126 29.8771 68.5106 28.1336L70.3335 27.357C70.7146 28.3746 71.6602 29.0559 72.7268 29.0814C74.2925 29.0814 75.2654 28.0879 75.2654 26.2265V25.5299H75.1983C74.5698 26.2702 73.6526 26.6883 72.6932 26.6718C70.1548 26.5461 68.1598 24.4079 68.1598 21.8128C68.1598 19.2176 70.1548 17.0794 72.6932 16.9537C73.6495 16.9524 74.5608 17.3678 75.1983 18.0956H75.2766ZM72.8834 24.8104H72.8722C73.599 24.7819 74.2827 24.4509 74.7644 23.8943C75.246 23.3378 75.4837 22.6042 75.422 21.8641C75.4772 21.1275 75.2388 20.3993 74.7609 19.8446C74.2829 19.2899 73.6059 18.9557 72.8834 18.9179C71.388 19.0524 70.2411 20.3313 70.2411 21.8641C70.2411 23.397 71.388 24.6759 72.8834 24.8104ZM95.1496 12.1574H100.16C101.784 12.0382 103.338 12.8557 104.186 14.2758C105.034 15.6959 105.034 17.4806 104.186 18.9007C103.338 20.3208 101.784 21.1383 100.16 21.0191H97.2409V26.432H95.1496V12.1574ZM100.149 19.0092L100.193 19.0435C101.518 19.0435 102.592 17.9468 102.592 16.5939C102.592 15.2411 101.518 14.1444 100.193 14.1444H97.2297V19.0092H100.149ZM113.043 16.9537L113.099 16.9879C115.481 16.9879 117.338 18.4382 117.338 20.9391V26.432H115.324V25.2901H115.257C114.675 26.2136 113.646 26.7391 112.573 26.6604C111.703 26.7261 110.843 26.4295 110.19 25.838C109.537 25.2465 109.146 24.4104 109.107 23.52C109.107 21.453 111.131 20.3111 113.133 20.3111C113.893 20.3078 114.642 20.4961 115.313 20.8592V20.7108C115.26 20.1621 114.993 19.6584 114.572 19.3127C114.152 18.9669 113.613 18.8082 113.077 18.8722C112.295 18.8069 111.549 19.219 111.175 19.9228L109.319 19.1348C110.024 17.7155 111.487 16.8587 113.043 16.9537ZM112.786 24.7762L112.842 24.8104C114.102 24.7791 115.146 23.8048 115.291 22.5265C114.711 22.1958 114.054 22.0301 113.39 22.0469C112.339 22.0469 111.153 22.4237 111.153 23.5657C111.153 24.4222 112.104 24.7762 112.786 24.7762ZM124.674 17.2963H127L121.274 30.7601H119.093L121.218 25.9524L117.494 17.2963H119.731L122.214 23.4857H122.281L124.674 17.2963ZM105.874 26.432V12.1574H107.966V26.432H105.874ZM23.3869 14.556C23.6673 14.7182 23.8349 15.0085 23.8349 15.3325C23.8349 15.6564 23.6673 15.9467 23.3868 16.1085L18.2959 19.0469L14.7222 15.5923L18.6325 11.8125L23.3869 14.556ZM17.8255 11.3463L14.0779 14.9693L1.12712 2.45L12.5935 8.32589L17.8255 11.3463ZM1.31754 28.55L14.0779 16.2153L17.489 19.513L12.6132 22.3278L1.31754 28.55ZM0.36214 2.95677L13.4334 15.5921L0.350006 28.2395L0.36214 2.95677Z" fill="#131313"/>
</svg>
