<svg width="84" height="84" viewBox="0 0 84 84" fill="none" xmlns="http://www.w3.org/2000/svg">
<circle cx="42" cy="41.9995" r="40" fill="url(#paint0_linear_2_356)" stroke="#0B0B15" stroke-width="3"/>
<path d="M63.8408 43.4331H60.1943C59.6745 44.5154 59.0789 45.5596 58.4121 46.5581H63.8408V43.4331ZM20.0908 40.3081V43.4331H23.7373C23.2547 42.4238 22.8499 41.3791 22.5264 40.3081H20.0908Z" fill="#85252B"/>
<path d="M46.6533 42.2397L41.6016 52.3433L36.9141 36.7183L33.5566 43.4331H23.7373C24.7139 45.4761 26.0322 47.477 27.7051 49.4565C31.623 54.0913 36.9092 57.2446 41.084 60.0347L41.9629 60.6206L42.8418 60.0347C47.0195 57.2446 52.3057 54.0913 56.2207 49.4565C57.0063 48.5333 57.738 47.5656 58.4121 46.5581H48.8125L46.6533 42.2397Z" fill="#85252B"/>
<path d="M37.6426 28.2729L42.3301 43.898L46.6533 35.2515L50.7441 43.4331H60.1943C61.6007 40.5325 62.3141 37.3449 62.2783 34.1216C62.2168 28.0562 57.3506 23.1206 51.4306 23.1206C46.7324 23.1206 43.6084 25.855 41.9658 27.8286C40.3232 25.855 37.1992 23.1206 32.501 23.1206C26.581 23.1206 21.7148 28.0562 21.6533 34.1216C21.6285 36.2161 21.9229 38.3022 22.5263 40.3081H31.625L37.6426 28.2729Z" fill="#85252B"/>
<defs>
<linearGradient id="paint0_linear_2_356" x1="42" y1="1.99951" x2="42" y2="81.9995" gradientUnits="userSpaceOnUse">
<stop stop-color="#FEA1A9"/>
<stop offset="1" stop-color="#E67A7F"/>
</linearGradient>
</defs>
</svg>
