<svg width="84" height="84" viewBox="0 0 84 84" fill="none" xmlns="http://www.w3.org/2000/svg">
<circle cx="42" cy="41.9995" r="40" fill="url(#paint0_linear_2_362)" stroke="#0B0B15" stroke-width="3"/>
<path fill-rule="evenodd" clip-rule="evenodd" d="M27.942 24.3785C27.9184 24.1033 27.7866 23.8488 27.5754 23.6709C27.3643 23.4929 27.0911 23.4061 26.816 23.4295L24.7389 23.6055C24.6026 23.6171 24.4698 23.6554 24.3483 23.7182C24.2268 23.7811 24.1189 23.8672 24.0306 23.9718C23.9424 24.0763 23.8757 24.1973 23.8342 24.3276C23.7927 24.458 23.7773 24.5953 23.7889 24.7316L24.1316 28.7618C23.9817 28.8663 23.862 29.0084 23.7844 29.1737C23.7068 29.3391 23.674 29.522 23.6894 29.7041C23.7048 29.8861 23.7679 30.0609 23.8722 30.2109C23.9765 30.3609 24.1184 30.4808 24.2837 30.5587L24.6483 34.8524C24.6598 34.9887 24.6981 35.1214 24.7609 35.243C24.8238 35.3645 24.9099 35.4724 25.0145 35.5606C25.1191 35.6489 25.24 35.7156 25.3703 35.7571C25.5007 35.7986 25.638 35.814 25.7743 35.8024L27.8503 35.6253C28.1254 35.602 28.38 35.4704 28.5582 35.2594C28.7363 35.0485 28.8234 34.7755 28.8003 34.5003L28.4149 29.9732C28.9462 29.8785 29.467 29.7878 29.9816 29.7024C30.091 31.4212 30.4087 34.3368 30.9941 37.0826C31.3691 38.8326 31.8816 40.6597 32.5941 42.0972C32.9483 42.8139 33.4087 43.5472 34.018 44.1264C34.5566 44.6389 35.2858 45.092 36.1858 45.2107V49.7232L35.8462 49.6014L35.6139 49.518C34.567 49.143 33.5035 48.7618 32.691 48.5566C32.2972 48.4566 31.7003 48.3264 31.1149 48.3785C30.6152 48.4167 30.1384 48.604 29.7462 48.916C29.4783 49.1345 29.2628 49.4103 29.1155 49.723C28.9683 50.0358 28.8929 50.3776 28.8951 50.7232C28.8951 51.5805 29.1878 53.7857 29.4368 55.5472C29.5903 56.6346 29.75 57.721 29.916 58.8066L29.9493 59.0243L29.9587 59.0816L29.9608 59.0962V59.1014L32.0201 58.7826L29.9618 59.1014C30.0415 59.6061 30.3038 60.0639 30.699 60.3878C31.0942 60.7117 31.5946 60.8791 32.1051 60.8581C32.6156 60.8372 33.1007 60.6293 33.468 60.2741C33.8352 59.9189 34.0592 59.4411 34.0972 58.9316L34.4826 53.5389C35.6399 53.9535 36.991 54.4316 38.3253 54.8066C39.6514 55.1795 41.1066 55.4941 42.4368 55.4941C43.767 55.4941 45.2222 55.1795 46.5483 54.8066C47.8712 54.4347 49.2108 53.9607 50.3608 53.5493L50.7764 58.942C50.8159 59.4511 51.0411 59.928 51.4091 60.2821C51.7772 60.6361 52.2624 60.8426 52.7727 60.8624C53.283 60.8822 53.7828 60.7139 54.1771 60.3894C54.5715 60.065 54.8329 59.607 54.9118 59.1024L54.9128 59.0962L54.9149 59.0816L54.9243 59.0243L54.9576 58.8055L55.0764 58.0212C55.1743 57.367 55.3055 56.4795 55.4368 55.5472C55.6858 53.7857 55.9785 51.5805 55.9785 50.7243C55.9785 50.1097 55.7389 49.4139 55.1264 48.916C54.7342 48.6039 54.2574 48.4167 53.7576 48.3785C53.1722 48.3264 52.5753 48.4566 52.1805 48.5555C51.368 48.7618 50.3055 49.143 49.2587 49.518L49.0264 49.6014L48.6868 49.7232V45.216C50.6555 44.9962 51.8483 43.4003 52.5055 42.1305C53.268 40.6597 53.766 38.8003 54.1035 37.041C54.6326 34.292 54.841 31.4055 54.9087 29.716C55.417 29.7993 55.9326 29.8878 56.4566 29.9805L56.0712 34.5003C56.0481 34.7756 56.1353 35.0488 56.3137 35.2598C56.4921 35.4708 56.7469 35.6023 57.0222 35.6253L59.0972 35.8024C59.2335 35.814 59.3708 35.7986 59.5012 35.7571C59.6315 35.7156 59.7524 35.6489 59.857 35.5606C59.9616 35.4724 60.0477 35.3645 60.1106 35.243C60.1734 35.1214 60.2117 34.9887 60.2233 34.8524L60.5878 30.5587C60.7537 30.4814 60.8962 30.3618 61.001 30.2118C61.1058 30.0618 61.1692 29.8869 61.1847 29.7046C61.2002 29.5223 61.1674 29.3391 61.0895 29.1736C61.0116 29.008 60.8913 28.866 60.741 28.7618L61.0837 24.7316C61.0952 24.5953 61.0798 24.458 61.0384 24.3276C60.9969 24.1973 60.9301 24.0763 60.8419 23.9718C60.7537 23.8672 60.6457 23.7811 60.5242 23.7182C60.4027 23.6554 60.27 23.6171 60.1337 23.6055L58.0576 23.4285C57.7825 23.4054 57.5095 23.4925 57.2985 23.6706C57.0876 23.8487 56.956 24.1033 56.9326 24.3785L56.6337 27.8962C55.9691 27.7795 55.318 27.6701 54.6785 27.568C54.5228 27.2857 54.3036 27.0433 54.0383 26.86C53.7731 26.6767 53.4688 26.5575 53.1497 26.5118C52.8305 26.466 52.505 26.495 52.1989 26.5964C51.8929 26.6978 51.6145 26.8689 51.3858 27.0962C45.0555 26.2972 39.6962 26.2982 33.4764 27.0857C33.2476 26.862 32.9704 26.6939 32.6662 26.5945C32.3621 26.4952 32.0391 26.4672 31.7223 26.5129C31.4056 26.5585 31.1037 26.6765 30.8399 26.8577C30.5761 27.0389 30.3576 27.2784 30.2014 27.5576C29.5597 27.6597 28.9066 27.7701 28.2399 27.8889L27.942 24.3785ZM35.0701 36.2118C34.5855 33.8678 34.268 31.4924 34.1201 29.1035C39.8816 28.4024 44.8962 28.4024 50.7608 29.117C50.7212 30.5045 50.5441 33.4857 50.0118 36.2535C49.6993 37.8795 49.293 39.2753 48.8066 40.2139C48.4753 40.8524 48.2483 41.0316 48.1733 41.0743H36.8566C36.7358 40.9482 36.5493 40.693 36.3285 40.2472C35.8472 39.2753 35.4201 37.8472 35.0701 36.2118ZM47.1243 34.3035C47.1243 35.5467 46.6304 36.7389 45.7514 37.618C44.8723 38.4971 43.68 38.991 42.4368 38.991C41.1936 38.991 40.0013 38.4971 39.1222 37.618C38.2432 36.7389 37.7493 35.5467 37.7493 34.3035C37.7493 33.0603 38.2432 31.868 39.1222 30.9889C40.0013 30.1098 41.1936 29.616 42.4368 29.616C43.68 29.616 44.8723 30.1098 45.7514 30.9889C46.6304 31.868 47.1243 33.0603 47.1243 34.3035Z" fill="#422790"/>
<defs>
<linearGradient id="paint0_linear_2_362" x1="42" y1="1.99951" x2="42" y2="81.9995" gradientUnits="userSpaceOnUse">
<stop stop-color="#A097D3"/>
<stop offset="1" stop-color="#9270E5"/>
</linearGradient>
</defs>
</svg>
