<svg width="42" height="42" viewBox="0 0 42 42" fill="none" xmlns="http://www.w3.org/2000/svg">
<rect x="0.0151367" y="0.5" width="41.5" height="41.5" rx="8" fill="#0B0B15"/>
<g filter="url(#filter0_d_2_592)">
<path d="M19.7651 13.25C19.7651 12.6977 20.2129 12.25 20.7651 12.25C21.3174 12.25 21.7651 12.6977 21.7651 13.25V29.25C21.7651 29.8023 21.3174 30.25 20.7651 30.25C20.2129 30.25 19.7651 29.8023 19.7651 29.25V13.25Z" fill="white"/>
<path d="M20.7651 12.1C20.13 12.1 19.6151 12.6149 19.6151 13.25V29.25C19.6151 29.8851 20.13 30.4 20.7651 30.4C21.4003 30.4 21.9151 29.8851 21.9151 29.25V13.25C21.9151 12.6149 21.4003 12.1 20.7651 12.1Z" stroke="white" stroke-width="0.3" stroke-linecap="round"/>
</g>
<g filter="url(#filter1_d_2_592)">
<path d="M11.7651 21.25C11.7651 20.6977 12.2129 20.25 12.7651 20.25H28.7651C29.3174 20.25 29.7651 20.6977 29.7651 21.25C29.7651 21.8023 29.3174 22.25 28.7651 22.25H12.7651C12.2129 22.25 11.7651 21.8023 11.7651 21.25Z" fill="white"/>
<path d="M12.7651 20.1C12.13 20.1 11.6151 20.6149 11.6151 21.25C11.6151 21.8851 12.13 22.4 12.7651 22.4H28.7651C29.4003 22.4 29.9151 21.8851 29.9151 21.25C29.9151 20.6149 29.4003 20.1 28.7651 20.1H12.7651Z" stroke="white" stroke-width="0.3" stroke-linecap="round"/>
</g>
<defs>
<filter id="filter0_d_2_592" x="15.4651" y="11.95" width="10.6" height="26.6001" filterUnits="userSpaceOnUse" color-interpolation-filters="sRGB">
<feFlood flood-opacity="0" result="BackgroundImageFix"/>
<feColorMatrix in="SourceAlpha" type="matrix" values="0 0 0 0 0 0 0 0 0 0 0 0 0 0 0 0 0 0 127 0" result="hardAlpha"/>
<feOffset dy="4"/>
<feGaussianBlur stdDeviation="2"/>
<feComposite in2="hardAlpha" operator="out"/>
<feColorMatrix type="matrix" values="0 0 0 0 0 0 0 0 0 0 0 0 0 0 0 0 0 0 0.25 0"/>
<feBlend mode="normal" in2="BackgroundImageFix" result="effect1_dropShadow_2_592"/>
<feBlend mode="normal" in="SourceGraphic" in2="effect1_dropShadow_2_592" result="shape"/>
</filter>
<filter id="filter1_d_2_592" x="7.46513" y="19.95" width="26.6" height="10.6001" filterUnits="userSpaceOnUse" color-interpolation-filters="sRGB">
<feFlood flood-opacity="0" result="BackgroundImageFix"/>
<feColorMatrix in="SourceAlpha" type="matrix" values="0 0 0 0 0 0 0 0 0 0 0 0 0 0 0 0 0 0 127 0" result="hardAlpha"/>
<feOffset dy="4"/>
<feGaussianBlur stdDeviation="2"/>
<feComposite in2="hardAlpha" operator="out"/>
<feColorMatrix type="matrix" values="0 0 0 0 0 0 0 0 0 0 0 0 0 0 0 0 0 0 0.25 0"/>
<feBlend mode="normal" in2="BackgroundImageFix" result="effect1_dropShadow_2_592"/>
<feBlend mode="normal" in="SourceGraphic" in2="effect1_dropShadow_2_592" result="shape"/>
</filter>
</defs>
</svg>
