<svg width="84" height="84" viewBox="0 0 84 84" fill="none" xmlns="http://www.w3.org/2000/svg">
<circle cx="42" cy="41.9995" r="40" fill="url(#paint0_linear_2_350)" stroke="#0B0B15" stroke-width="3"/>
<path d="M63.3564 44.8308C66.3494 39.1292 60.2658 35.1753 52.3119 33.2362C52.9104 31.8761 53.0838 30.0956 51.3963 28.3956C49.2322 26.2198 50.6705 23.0503 50.6705 23.0503C50.6705 23.0503 46.1283 27.2401 48.9963 30.1292C50.0541 31.194 50.6049 32.1292 50.8682 32.9112C48.6724 32.4586 46.449 32.1522 44.2127 31.994C44.8807 30.1784 44.9455 27.8979 42.8408 25.7144C39.9596 22.7214 41.8783 18.3628 41.8783 18.3628C41.8783 18.3628 35.8213 24.1237 39.6455 28.0956C41.0416 29.544 41.7768 30.819 42.133 31.8878C39.7627 31.8167 37.4815 31.9206 35.4549 32.2042C35.6963 31.0362 35.4947 29.6933 34.2065 28.3964C32.0424 26.2206 33.4814 23.0503 33.4814 23.0503C33.4814 23.0503 28.9385 27.2401 31.8072 30.1292C32.7057 31.0339 33.2322 31.8417 33.5346 32.5456C33.1924 32.6206 32.8604 32.7019 32.5408 32.7901C22.6643 31.8659 18.3565 33.9065 20.3244 37.9097C16.89 41.344 18.1807 45.2636 22.4783 48.2628C24.7205 57.4979 25.2979 65.2378 42.1854 65.2378C57.2541 65.2378 59.3361 59.0737 61.2025 51.1847C66.8025 50.0698 65.6096 47.3855 63.3564 44.8308ZM61.9604 43.9081C60.0846 47.9081 51.9439 50.919 42.1854 50.919C32.4275 50.919 24.2869 47.9081 22.4104 43.9081C22.3705 43.7894 22.3322 43.6659 22.294 43.5456C23.1877 41.2784 26.0924 39.3112 30.1721 37.994C29.2135 38.9206 29.0143 40.3042 31.5369 40.7894C32.2588 40.9284 34.2408 40.4472 33.3744 37.9878C33.2533 37.644 33.0557 37.4136 32.8127 37.2745C35.6158 36.6331 38.7979 36.2636 42.1854 36.2636C42.565 36.2636 42.9377 36.2769 43.3119 36.2854C41.3572 36.9792 39.7627 39.1167 43.7541 39.7472C44.6354 39.8862 47.0549 39.405 45.9971 36.9456C45.9047 36.7264 45.7565 36.5352 45.5674 36.3909C49.3072 36.6659 52.6955 37.3862 55.4346 38.4245C53.026 38.2901 50.3541 39.7745 54.633 41.8644C55.551 42.3128 58.34 42.7245 57.9564 40.0089C57.9287 39.8127 57.8595 39.6247 57.7533 39.4573C59.9432 40.6112 61.4705 42.0105 62.076 43.5456L61.9604 43.9081Z" fill="#854E00"/>
<path d="M36.983 45.5821C39.5088 45.5821 41.1932 43.2986 42.5127 42.4048C44.3565 41.1548 48.9924 40.6673 44.9096 40.5689C41.0369 40.4759 36.2557 43.6196 33.0604 43.4032C27.7697 43.0439 33.1885 45.5821 36.983 45.5821ZM42.4408 50.2478C43.333 50.4196 45.7854 49.8243 44.7127 46.7829C43.501 43.3415 36.1658 49.04 42.4408 50.2478ZM28.5533 42.7204C27.701 41.5173 26.465 39.9915 25.9533 40.7861C25.2541 41.8728 25.0338 44.0595 25.5416 44.1564C29.5229 44.9196 29.244 43.6946 28.5533 42.7204ZM51.6979 43.2079C52.4158 42.3189 50.9822 40.179 50.0619 40.5532C48.6213 41.1392 47.7908 40.7423 47.158 41.6314C45.676 43.7134 50.7221 44.415 51.6979 43.2079ZM51.2494 45.7556C50.2166 45.3001 50.4604 46.8259 48.9346 45.6017C47.8424 44.7251 45.4924 46.9361 47.0424 48.4376C48.7674 50.1087 49.2268 48.5204 49.9518 48.654C51.4252 48.9251 53.9588 46.9509 51.2494 45.7556ZM34.076 46.2775C33.5377 45.7478 32.8158 46.3868 32.408 47.1665C32.0041 46.9681 31.6752 46.922 31.6752 46.922C31.3666 46.0423 30.4486 45.4392 30.4486 45.4392C30.4486 45.4392 30.5322 46.354 30.6533 46.8001C29.6393 46.44 29.608 44.6275 29.608 44.6275C29.608 44.6275 28.9275 45.0345 28.9893 45.7259C27.8729 44.8251 26.9221 45.2462 26.9221 45.2462C26.9221 45.2462 28.3385 46.0431 28.5338 46.5806C27.7385 46.6423 27.2744 46.9173 27.0041 47.5571C27.0049 47.5626 28.576 46.8095 29.7385 47.3532C29.2799 47.7282 29.508 48.665 29.508 48.665C30.59 47.5181 31.4541 47.6407 32.1455 47.8462C32.0619 48.197 32.0674 48.5173 32.2158 48.7118C33.415 50.2884 37.5924 49.9337 38.7143 48.7681C40.0729 47.3579 36.2979 48.4642 34.076 46.2775Z" fill="#854E00"/>
<path d="M37.0268 40.3395C36.6713 41.0536 36.669 41.5927 37.0799 42.1536C37.0854 42.1552 37.2455 40.4208 38.3088 39.702C38.3955 40.288 39.3158 40.5724 39.3158 40.5724C38.5799 37.9661 40.7283 37.8302 40.7182 36.895C39.5791 36.9911 38.9323 37.8192 38.9323 37.8192C38.019 37.6325 37.0291 38.1099 37.0291 38.1099C37.0291 38.1099 37.858 38.5075 38.3026 38.6333C37.4729 39.3185 35.901 38.4146 35.901 38.4146C35.901 38.4146 35.901 39.2083 36.526 39.5091C35.1799 40.0052 35.0533 41.0364 35.0533 41.0364C35.0533 41.0364 36.4643 40.231 37.0268 40.3395ZM56.9885 43.8989C57.3119 43.2849 56.8401 42.6466 56.8401 42.6466C56.8401 42.6466 56.1143 44.3083 55.0401 44.2513C55.3229 43.8856 55.7526 43.0731 55.7526 43.0731C55.7526 43.0731 54.6729 43.2786 54.0494 43.9716C54.0494 43.9716 53.0369 43.6911 52.0651 44.2911C52.6135 45.0489 54.4213 43.8794 55.3799 46.4122C55.3799 46.4122 55.9502 45.6364 55.6713 45.1138C56.9541 45.0583 58.1151 46.3567 58.119 46.3521C58.1143 45.6567 57.7924 45.2255 57.0807 44.863C57.4682 44.4419 59.0823 44.2505 59.0823 44.2505C59.0823 44.2505 58.3666 43.4966 56.9885 43.8989Z" fill="#854E00"/>
<defs>
<linearGradient id="paint0_linear_2_350" x1="42" y1="1.99951" x2="42" y2="81.9995" gradientUnits="userSpaceOnUse">
<stop stop-color="#F6C277"/>
<stop offset="1" stop-color="#EAA649"/>
</linearGradient>
</defs>
</svg>
