<svg width="84" height="84" viewBox="0 0 84 84" fill="none" xmlns="http://www.w3.org/2000/svg">
<circle cx="42" cy="41.9995" r="40" fill="url(#paint0_linear_2_366)" stroke="#0B0B15" stroke-width="3"/>
<path fill-rule="evenodd" clip-rule="evenodd" d="M35.2978 41.9391C33.2561 41.3964 29.1384 39.8745 29.1384 36.4224C29.1384 31.8318 34.7405 25.5234 34.7405 25.5234C34.7405 25.5234 36.5645 22.3984 41.6957 22.3984C46.8259 22.3984 49.4478 25.5234 49.4478 25.5234C49.4478 25.5234 53.0968 29.6141 53.0968 36.4224C53.0968 39.9307 51.0384 41.3547 49.0436 41.912C47.4228 43.8391 44.9238 45.0609 42.1593 45.0609C39.4072 45.0609 36.9197 43.8516 35.2978 41.9391ZM35.9041 38.9786C36.8666 41.2953 39.2707 42.9786 42.1593 42.9786C43.3468 42.9786 44.452 42.6932 45.4093 42.1974L45.3436 42.1901C45.3436 42.1901 51.5707 36.1818 46.3259 28.6484C45.7561 27.5891 37.078 30.2109 35.9093 31.7734C35.2072 32.7109 35.5322 36.2786 35.9041 38.9786Z" fill="#16426A"/>
<path d="M31.6728 52.0254C31.0443 52.4104 30.5722 53.0051 30.3397 53.7045C30.1073 54.4038 30.1295 55.1629 30.4024 55.8475C30.6754 56.5321 31.1815 57.0982 31.8314 57.4457C32.4813 57.7933 33.2331 57.9 33.954 57.747C34.675 57.594 35.3186 57.1911 35.7713 56.6095C36.224 56.0279 36.4565 55.305 36.4278 54.5686C36.3992 53.8322 36.1112 53.1295 35.6147 52.5849C35.1181 52.0402 34.4451 51.6886 33.7145 51.592C33.6754 51.4523 33.6397 51.3116 33.6072 51.1702C33.4647 50.5266 33.3535 49.8766 33.2738 49.2223C33.1878 48.5609 33.1391 47.8953 33.128 47.2285C33.1258 47.0454 33.1311 46.8622 33.1436 46.6795C33.5436 46.565 33.9457 46.4608 34.3468 46.3702C34.8061 46.266 35.0791 46.8077 35.2988 47.2473L35.3103 47.2702L35.3884 47.4233H47.627C47.8655 46.9712 48.4061 46.2504 48.9301 46.3702C49.4884 46.4973 50.0499 46.6483 50.6061 46.8212L50.603 46.8223C50.6009 46.8202 50.6009 46.8202 50.603 46.8243C50.6072 46.8389 50.6301 46.9077 50.653 47.0535C50.6791 47.2223 50.6968 47.441 50.7051 47.7045C50.7197 48.2295 50.6895 48.8681 50.628 49.5118C50.5655 50.1545 50.4728 50.7764 50.3686 51.267C50.3457 51.3764 50.3228 51.4754 50.2999 51.565H48.9301C48.7367 51.5651 48.5471 51.619 48.3827 51.7207C48.2182 51.8225 48.0853 51.968 47.9988 52.141L46.9572 54.2243C46.8847 54.3689 46.8469 54.5283 46.8468 54.69V56.7733C46.8468 57.0496 46.9565 57.3145 47.1519 57.5099C47.3472 57.7052 47.6122 57.815 47.8884 57.815H49.9718V55.7316H48.9301V54.9358L49.5738 53.6483H52.453L53.0968 54.9358V55.7316H52.0551V57.815H54.1384C54.4147 57.815 54.6796 57.7052 54.875 57.5099C55.0703 57.3145 55.1801 57.0496 55.1801 56.7733V54.69C55.18 54.5283 55.1422 54.3689 55.0697 54.2243L54.028 52.141C53.9416 51.968 53.8087 51.8225 53.6442 51.7207C53.4797 51.619 53.2902 51.5651 53.0968 51.565H52.4343C52.5457 51.0098 52.6384 50.3618 52.7009 49.7118C52.7697 49.0098 52.8051 48.2816 52.7874 47.6462L52.7863 47.617C56.9405 49.3723 60.3884 52.2587 60.3884 55.2837V60.94H22.8884V55.2837C22.8884 52.1254 26.6488 49.117 31.0457 47.391C31.0572 48.0389 31.1186 48.7712 31.2072 49.4806C31.303 50.2462 31.4332 51.0077 31.577 51.6348C31.6082 51.7691 31.6395 51.8993 31.6728 52.0254Z" fill="#16426A"/>
<path d="M33.3051 55.7474C33.8655 55.7474 34.3468 55.2891 34.3468 54.6901C34.3468 54.0922 33.8655 53.6328 33.3051 53.6328C32.7447 53.6328 32.2634 54.0911 32.2634 54.6901C32.2634 55.288 32.7447 55.7474 33.3051 55.7474Z" fill="#16426A"/>
<defs>
<linearGradient id="paint0_linear_2_366" x1="42" y1="1.99951" x2="42" y2="81.9995" gradientUnits="userSpaceOnUse">
<stop stop-color="#EDF6FF"/>
<stop offset="1" stop-color="#D1E9FF"/>
</linearGradient>
</defs>
</svg>
