<svg width="72" height="65" viewBox="0 0 72 65" fill="none" xmlns="http://www.w3.org/2000/svg">
<path d="M70.0965 2.76005C68.773 1.32618 66.9134 0.506836 64.97 0.506836C61.1 0.506836 57.9672 3.69888 57.9672 7.642C57.9672 8.27358 58.0509 8.90516 58.2185 9.51967L50.6293 14.9991C47.9153 12.1996 43.4757 12.1655 40.7281 14.9308C38.7848 16.8938 38.1314 19.8127 39.0696 22.4415L32.0667 28.45C29.8553 25.2239 25.4995 24.4216 22.3164 26.6748C21.1102 27.5283 20.2055 28.7573 19.7197 30.157L13.9063 27.7502C13.2529 23.8583 9.651 21.2466 5.83128 21.9123C2.01155 22.578 -0.551681 26.248 0.101693 30.1399C0.755066 34.0319 4.357 36.6435 8.17672 35.9778C10.6897 35.5511 12.7671 33.7587 13.6215 31.3178L19.4349 33.7246C20.0882 37.6165 23.6902 40.2282 27.5099 39.5625C30.8773 38.9821 33.34 36.012 33.34 32.5297C33.34 32.3078 33.3232 32.0688 33.3065 31.8469L40.9459 25.2751C43.8107 27.9209 48.2336 27.716 50.8303 24.7971C52.4889 22.9365 53.0585 20.3248 52.3548 17.9351L59.8603 12.5069C62.5073 15.3917 66.9301 15.5282 69.7614 12.8483C72.5927 10.1513 72.7267 5.64484 70.0965 2.76005ZM7.004 32.6833C4.99362 32.6833 3.35181 31.0105 3.35181 28.9621C3.35181 26.9138 4.99362 25.2409 7.004 25.2409C9.01438 25.2409 10.6562 26.9138 10.6562 28.9621C10.6562 31.0105 9.01438 32.6833 7.004 32.6833ZM26.3204 36.268C24.31 36.268 22.6682 34.5952 22.6682 32.5468C22.6682 30.4984 24.31 28.8256 26.3204 28.8256C28.3308 28.8256 29.9726 30.4984 29.9726 32.5468C29.9726 34.5952 28.3475 36.268 26.3204 36.268ZM45.6536 23.7388C43.6432 23.7388 42.0014 22.066 42.0014 20.0176C42.0014 17.9692 43.6432 16.2964 45.6536 16.2964C47.664 16.2964 49.3058 17.9692 49.3058 20.0176C49.3058 22.066 47.664 23.7388 45.6536 23.7388ZM64.97 11.3632C62.9596 11.3632 61.3178 9.69037 61.3178 7.642C61.3178 5.59363 62.9596 3.92079 64.97 3.92079C66.9804 3.92079 68.6222 5.59363 68.6222 7.642C68.6222 9.70744 66.9971 11.3632 64.97 11.3632Z" fill="white"/>
<path d="M69.6625 20.4443H60.2807C59.3593 20.4443 58.6054 21.2125 58.6054 22.1513V62.7775C58.6054 63.7163 59.3593 64.4844 60.2807 64.4844H69.6625C70.5839 64.4844 71.3378 63.7163 71.3378 62.7775V22.1513C71.3378 21.2125 70.5839 20.4443 69.6625 20.4443ZM67.9872 61.2412H61.956V23.8583H67.9872V61.2412Z" fill="white"/>
<path d="M50.3951 32.7341H41.0134C40.0919 32.7341 39.338 33.5023 39.338 34.4411V62.7774C39.338 63.7163 40.0919 64.4844 41.0134 64.4844H50.3951C51.3165 64.4844 52.0704 63.7163 52.0704 62.7774V34.4411C52.0704 33.5023 51.3165 32.7341 50.3951 32.7341ZM48.7198 61.2411H42.6887V36.1481H48.7198V61.2411Z" fill="white"/>
<path d="M30.9612 45.5359H21.5795C20.6581 45.5359 19.9042 46.304 19.9042 47.2427V62.9457C19.9042 63.8845 20.6581 64.6526 21.5795 64.6526H30.9612C31.8827 64.6526 32.6365 63.8845 32.6365 62.9457V47.2427C32.6365 46.304 31.8827 45.5359 30.9612 45.5359ZM29.2859 61.2389H23.2548V48.9496H29.2859V61.2389Z" fill="white"/>
<path d="M11.6959 41.9519H2.31402C1.39258 41.9519 0.638672 42.72 0.638672 43.6589V62.9478C0.638672 63.8867 1.39258 64.6548 2.31402 64.6548H11.6959C12.6174 64.6548 13.3713 63.8867 13.3713 62.9478V43.6589C13.3713 42.72 12.6174 41.9519 11.6959 41.9519ZM10.0206 61.2409H3.98936V45.3659H10.0206V61.2409Z" fill="white"/>
</svg>
