<svg width="21" height="20" viewBox="0 0 21 20" fill="none" xmlns="http://www.w3.org/2000/svg">
<path fill-rule="evenodd" clip-rule="evenodd" d="M1.71429 10.0001C1.71429 5.40008 5.54572 1.66675 10.2772 1.66675C15.0171 1.66675 18.8571 5.40008 18.8571 10.0001C18.8571 14.6001 15.0171 18.3334 10.2772 18.3334C5.54572 18.3334 1.71429 14.6001 1.71429 10.0001ZM13.6886 6.66675H16.2171C15.3943 5.29175 14.0829 4.22508 12.5057 3.70008C13.02 4.62508 13.4143 5.62508 13.6886 6.66675ZM10.2857 3.36675C10.9971 4.36675 11.5543 5.47508 11.9229 6.66675H8.64858C9.01715 5.47508 9.57429 4.36675 10.2857 3.36675ZM3.42858 10.0001C3.42858 10.5751 3.51429 11.1334 3.65144 11.6667H6.54858C6.48001 11.1167 6.42858 10.5667 6.42858 10.0001C6.42858 9.43341 6.48001 8.88341 6.54858 8.33341H3.65144C3.51429 8.86675 3.42858 9.42508 3.42858 10.0001ZM4.35429 13.3334H6.88286C7.15715 14.3751 7.55144 15.3751 8.06572 16.3001C6.48858 15.7751 5.17715 14.7167 4.35429 13.3334ZM4.35429 6.66675H6.88286C7.15715 5.62508 7.55144 4.62508 8.06572 3.70008C6.48858 4.22508 5.17715 5.28341 4.35429 6.66675ZM10.2857 16.6334C9.57429 15.6334 9.01715 14.5251 8.64858 13.3334H11.9229C11.5543 14.5251 10.9971 15.6334 10.2857 16.6334ZM8.14286 10.0001C8.14286 10.5667 8.20286 11.1167 8.28001 11.6667H12.2914C12.3686 11.1167 12.4286 10.5667 12.4286 10.0001C12.4286 9.43341 12.3686 8.87508 12.2914 8.33341H8.28001C8.20286 8.87508 8.14286 9.43341 8.14286 10.0001ZM12.5057 16.3001C13.02 15.3751 13.4143 14.3751 13.6886 13.3334H16.2171C15.3943 14.7084 14.0829 15.7751 12.5057 16.3001ZM14.1429 10.0001C14.1429 10.5667 14.0914 11.1167 14.0229 11.6667H16.92C17.0571 11.1334 17.1429 10.5751 17.1429 10.0001C17.1429 9.42508 17.0571 8.86675 16.92 8.33341H14.0229C14.0914 8.88341 14.1429 9.43341 14.1429 10.0001Z" fill="white"/>
</svg>
