<svg width="150" height="151" viewBox="0 0 150 151" fill="none" xmlns="http://www.w3.org/2000/svg">
<rect x="0.326538" y="0.689636" width="149.568" height="149.568" rx="28.2205" fill="#10101E"/>
<g clip-path="url(#clip0_2_483)">
<path fill-rule="evenodd" clip-rule="evenodd" d="M48.5384 48.5376C44 53.0822 44 60.3858 44 74.9992C44 89.6126 44 96.9193 48.5384 101.458C53.083 105.999 60.3866 105.999 75 105.999C89.6134 105.999 96.9201 105.999 101.458 101.458C106 96.9224 106 89.6126 106 74.9992C106 60.3858 106 53.0791 101.458 48.5376C96.9232 43.9992 89.6134 43.9992 75 43.9992C60.3866 43.9992 53.0799 43.9992 48.5384 48.5376ZM80.425 68.7992C80.425 70.0826 81.4666 71.1242 82.75 71.1242H84.889L78.6487 77.3645C78.5767 77.4367 78.4912 77.4939 78.397 77.533C78.3029 77.5721 78.2019 77.5922 78.1 77.5922C77.9981 77.5922 77.8971 77.5721 77.803 77.533C77.7088 77.4939 77.6233 77.4367 77.5513 77.3645L72.6347 72.4479C71.6174 71.4313 70.2381 70.8603 68.8 70.8603C67.3619 70.8603 65.9826 71.4313 64.9653 72.4479L57.857 79.5562C57.6286 79.7691 57.4454 80.0257 57.3183 80.3109C57.1912 80.5961 57.1229 80.904 57.1174 81.2162C57.1119 81.5284 57.1693 81.8385 57.2862 82.128C57.4032 82.4175 57.5772 82.6804 57.798 82.9012C58.0188 83.122 58.2817 83.2961 58.5712 83.413C58.8608 83.5299 59.1708 83.5873 59.483 83.5818C59.7952 83.5763 60.1031 83.508 60.3883 83.3809C60.6735 83.2539 60.9301 83.0706 61.143 82.8422L68.2513 75.7339C68.3233 75.6617 68.4088 75.6045 68.503 75.5654C68.5971 75.5263 68.6981 75.5062 68.8 75.5062C68.9019 75.5062 69.0029 75.5263 69.097 75.5654C69.1912 75.6045 69.2767 75.6617 69.3487 75.7339L74.2653 80.6505C75.2826 81.6671 76.6619 82.2381 78.1 82.2381C79.5381 82.2381 80.9174 81.6671 81.9347 80.6505L88.175 74.4133V76.5492C88.175 77.1658 88.42 77.7572 88.856 78.1932C89.292 78.6292 89.8834 78.8742 90.5 78.8742C91.1166 78.8742 91.708 78.6292 92.144 78.1932C92.58 77.7572 92.825 77.1658 92.825 76.5492V68.7992C92.825 68.1826 92.58 67.5912 92.144 67.1552C91.708 66.7192 91.1166 66.4742 90.5 66.4742H82.75C82.1334 66.4742 81.542 66.7192 81.106 67.1552C80.67 67.5912 80.425 68.1826 80.425 68.7992Z" fill="white"/>
</g>
<defs>
<clipPath id="clip0_2_483">
<rect width="62" height="62" fill="white" transform="translate(44 43.9992)"/>
</clipPath>
</defs>
</svg>
