<svg width="150" height="151" viewBox="0 0 150 151" fill="none" xmlns="http://www.w3.org/2000/svg">
<rect x="0.268799" y="0.863495" width="149.568" height="149.568" rx="28.2205" fill="#10101E"/>
<path d="M97.942 75.4144V56.1461C97.942 55.124 97.536 54.1438 96.8133 53.4211C96.0906 52.6984 95.1104 52.2924 94.0884 52.2924H55.5518C54.5297 52.2924 53.5495 52.6984 52.8268 53.4211C52.1041 54.1438 51.6981 55.124 51.6981 56.1461V94.6827C51.6981 95.7047 52.1041 96.6849 52.8268 97.4076C53.5495 98.1303 54.5297 98.5363 55.5518 98.5363H74.8201" stroke="white" stroke-width="4.48426" stroke-linecap="round" stroke-linejoin="round"/>
<path d="M85.0971 93.3981C89.3537 93.3981 92.8044 89.9474 92.8044 85.6908C92.8044 81.4341 89.3537 77.9835 85.0971 77.9835C80.8405 77.9835 77.3898 81.4341 77.3898 85.6908C77.3898 89.9474 80.8405 93.3981 85.0971 93.3981Z" stroke="white" stroke-width="4.48426"/>
<path d="M91.5198 90.829L97.9426 95.9672M61.9751 65.1379H87.6662M61.9751 75.4143H72.2515" stroke="white" stroke-width="4.48426" stroke-linecap="round" stroke-linejoin="round"/>
</svg>
