<svg width="134" height="134" viewBox="0 0 134 134" fill="none" xmlns="http://www.w3.org/2000/svg">
<rect y="0.173401" width="133.416" height="133.416" rx="25.1729" fill="#10101E"/>
<path d="M87.125 66.6734V49.4859C87.125 48.5742 86.7628 47.6999 86.1182 47.0552C85.4735 46.4106 84.5992 46.0484 83.6875 46.0484H49.3125C48.4008 46.0484 47.5265 46.4106 46.8818 47.0552C46.2372 47.6999 45.875 48.5742 45.875 49.4859V83.8609C45.875 84.7726 46.2372 85.6469 46.8818 86.2916C47.5265 86.9362 48.4008 87.2984 49.3125 87.2984H66.5" stroke="white" stroke-width="4" stroke-linecap="round" stroke-linejoin="round"/>
<path d="M75.6667 82.7151C79.4636 82.7151 82.5417 79.637 82.5417 75.8401C82.5417 72.0431 79.4636 68.9651 75.6667 68.9651C71.8697 68.9651 68.7917 72.0431 68.7917 75.8401C68.7917 79.637 71.8697 82.7151 75.6667 82.7151Z" stroke="white" stroke-width="4"/>
<path d="M81.3958 80.4234L87.125 85.0067M55.0417 57.5067H77.9583M55.0417 66.6734H64.2083" stroke="white" stroke-width="4" stroke-linecap="round" stroke-linejoin="round"/>
</svg>
