<svg width="150" height="151" viewBox="0 0 150 151" fill="none" xmlns="http://www.w3.org/2000/svg">
<rect x="0.326538" y="0.689636" width="149.568" height="149.568" rx="28.2205" fill="#10101E"/>
<g clip-path="url(#clip0_2_471)">
<path d="M104.301 89.7947C104.688 90.1847 104.688 90.8138 104.301 91.2037L90.3251 105.284C89.934 105.678 89.2968 105.678 88.9056 105.284L79.5454 95.8537C79.1584 95.4638 79.1584 94.8347 79.5454 94.4447L82.7518 91.2143C83.1429 90.8202 83.7802 90.8202 84.1713 91.2143L88.9056 95.9841C89.2968 96.3782 89.934 96.3782 90.3251 95.9841L99.6749 86.5643C100.066 86.1702 100.703 86.1702 101.094 86.5643L104.301 89.7947ZM51.1538 43.9992C47.7385 43.9992 45 46.7582 45 50.1992V99.7992C45 103.24 47.7385 105.999 51.1538 105.999H73.4515C74.2215 105.999 74.7102 105.16 74.389 104.46C73.275 102.032 72.6923 99.3761 72.6923 96.6992C72.6923 86.4382 80.9692 78.0992 91.1538 78.0992C91.804 78.0992 92.4423 78.1351 93.0761 78.1995C93.6853 78.2614 94.2308 77.7954 94.2308 77.183V63.0112C94.2308 62.7473 94.1264 62.4941 93.9405 62.3068L75.7692 43.9992M72.6923 51.0762C72.6923 50.1835 73.7732 49.7382 74.4021 50.3718L87.9236 63.9947C88.55 64.6258 88.103 65.6992 87.2139 65.6992H73.6923C73.14 65.6992 72.6923 65.2515 72.6923 64.6992V51.0762Z" fill="white"/>
</g>
<defs>
<clipPath id="clip0_2_471">
<rect width="62" height="62" fill="white" transform="translate(44 43.9992)"/>
</clipPath>
</defs>
</svg>
