<svg width="150" height="151" viewBox="0 0 150 151" fill="none" xmlns="http://www.w3.org/2000/svg">
<rect x="0.326538" y="0.689697" width="149.568" height="149.568" rx="28.2205" fill="#10101E"/>
<g clip-path="url(#clip0_2_457)">
<path fill-rule="evenodd" clip-rule="evenodd" d="M53 48.2854V95.4281C53 96.6784 53.4967 97.8775 54.3808 98.7616C55.2649 99.6457 56.464 100.142 57.7143 100.142H77.1428C77.6951 100.142 78.1428 99.6947 78.1428 99.1424V95.1648C78.1428 94.8075 77.9484 94.4824 77.6567 94.2762C76.691 93.5933 75.934 92.6492 75.4784 91.5493C74.9489 90.2709 74.856 88.8535 75.2141 87.517C75.5723 86.1804 76.3614 84.9994 77.4592 84.1571C78.5569 83.3147 79.902 82.8581 81.2857 82.8581C82.6693 82.8581 84.0144 83.3147 85.1121 84.1571C86.2099 84.9994 86.999 86.1804 87.3572 87.517C87.7153 88.8535 87.6224 90.2709 87.0929 91.5493C86.6373 92.6492 85.8803 93.5933 84.9146 94.2762C84.6229 94.4824 84.4285 94.8075 84.4285 95.1648V99.1424C84.4285 99.6947 84.8762 100.142 85.4285 100.142H92.2856C93.5359 100.142 94.735 99.6457 95.6191 98.7616C96.5032 97.8775 96.9999 96.6784 96.9999 95.4281V48.2854C96.9999 47.0351 96.5032 45.836 95.6191 44.9519C94.735 44.0678 93.5359 43.5712 92.2856 43.5712H57.7143C56.464 43.5712 55.2649 44.0678 54.3808 44.9519C53.4967 45.836 53 47.0351 53 48.2854ZM81.2857 92.2853C82.1192 92.2853 82.9186 91.9542 83.508 91.3648C84.0974 90.7754 84.4285 89.976 84.4285 89.1424C84.4285 88.3089 84.0974 87.5095 83.508 86.9201C82.9186 86.3307 82.1192 85.9996 81.2857 85.9996C80.4521 85.9996 79.6527 86.3307 79.0633 86.9201C78.4739 87.5095 78.1428 88.3089 78.1428 89.1424C78.1428 89.976 78.4739 90.7754 79.0633 91.3648C79.6527 91.9542 80.4521 92.2853 81.2857 92.2853ZM65.5714 54.5711C65.5714 54.1544 65.737 53.7547 66.0317 53.46C66.3264 53.1653 66.7261 52.9997 67.1428 52.9997H82.8571C83.2738 52.9997 83.6735 53.1653 83.9682 53.46C84.2629 53.7547 84.4285 54.1544 84.4285 54.5711C84.4285 54.9879 84.2629 55.3876 83.9682 55.6823C83.6735 55.977 83.2738 56.1425 82.8571 56.1425H67.1428C66.7261 56.1425 66.3264 55.977 66.0317 55.6823C65.737 55.3876 65.5714 54.9879 65.5714 54.5711ZM60.8572 62.4282C60.4404 62.4282 60.0407 62.5938 59.746 62.8885C59.4513 63.1832 59.2857 63.5829 59.2857 63.9997C59.2857 64.4164 59.4513 64.8161 59.746 65.1108C60.0407 65.4055 60.4404 65.5711 60.8572 65.5711H89.1428C89.5595 65.5711 89.9592 65.4055 90.2539 65.1108C90.5486 64.8161 90.7142 64.4164 90.7142 63.9997C90.7142 63.5829 90.5486 63.1832 90.2539 62.8885C89.9592 62.5938 89.5595 62.4282 89.1428 62.4282H60.8572ZM59.2857 70.2854C59.2857 69.8686 59.4513 69.4689 59.746 69.1742C60.0407 68.8795 60.4404 68.7139 60.8572 68.7139H89.1428C89.5595 68.7139 89.9592 68.8795 90.2539 69.1742C90.5486 69.4689 90.7142 69.8686 90.7142 70.2854C90.7142 70.7021 90.5486 71.1018 90.2539 71.3965C89.9592 71.6912 89.5595 71.8568 89.1428 71.8568H60.8572C60.4404 71.8568 60.0407 71.6912 59.746 71.3965C59.4513 71.1018 59.2857 70.7021 59.2857 70.2854ZM60.8572 74.9996C60.4404 74.9996 60.0407 75.1652 59.746 75.4599C59.4513 75.7546 59.2857 76.1543 59.2857 76.571C59.2857 76.9878 59.4513 77.3875 59.746 77.6822C60.0407 77.9769 60.4404 78.1425 60.8572 78.1425H89.1428C89.5595 78.1425 89.9592 77.9769 90.2539 77.6822C90.5486 77.3875 90.7142 76.9878 90.7142 76.571C90.7142 76.1543 90.5486 75.7546 90.2539 75.4599C89.9592 75.1652 89.5595 74.9996 89.1428 74.9996H60.8572Z" fill="white"/>
<path d="M79.7429 105.228C79.0837 105.723 78.1429 105.252 78.1429 104.428V101.142C78.1429 100.59 78.5906 100.142 79.1429 100.142H83.4286C83.9809 100.142 84.4286 100.59 84.4286 101.142V104.428C84.4286 105.252 83.4878 105.723 82.8286 105.228L81.8858 104.521C81.5302 104.254 81.0413 104.254 80.6858 104.521L79.7429 105.228Z" fill="white"/>
</g>
<defs>
<clipPath id="clip0_2_457">
<rect width="62" height="62" fill="white" transform="translate(43.9999 43.9993)"/>
</clipPath>
</defs>
</svg>
