<svg width="150" height="151" viewBox="0 0 150 151" fill="none" xmlns="http://www.w3.org/2000/svg">
<rect x="0.326538" y="0.689697" width="149.568" height="149.568" rx="28.2205" fill="#10101E"/>
<g clip-path="url(#clip0_2_442)">
<path fill-rule="evenodd" clip-rule="evenodd" d="M65.2714 76.253C64.9933 75.9542 64.6439 75.7306 64.252 75.6163C60.8428 74.6217 55 72.1591 55 66.9577C55 60.1282 62.7493 50.9226 63.8371 49.6641C63.9234 49.5642 63.9947 49.4648 64.0692 49.3558C64.6582 48.4941 67.7716 44.5193 75.0916 44.5193C82.9908 44.5193 87.1733 49.1498 87.4771 49.4986C87.4904 49.5138 87.5007 49.5258 87.514 49.541C87.8773 49.96 93.3333 56.427 93.3333 66.9577C93.3333 72.2251 90.4334 74.5559 87.4387 75.5599C87.0572 75.6878 86.7129 75.9086 86.4401 76.2045C83.8455 79.0189 80.0307 80.7794 75.8333 80.7794C71.6592 80.7794 67.8656 79.0406 65.2714 76.253ZM65.7901 70.7926C65.8131 70.9626 65.8573 71.1284 65.9273 71.2849C67.5304 74.8687 71.3108 77.4477 75.8333 77.4477C77.7098 77.4477 79.4578 77.0023 80.9762 76.227C80.9934 76.2183 80.9886 76.1927 80.9695 76.1906C80.9531 76.1888 80.9458 76.1689 80.9574 76.1573C81.5414 75.5742 90.6257 66.1907 82.5 54.5193C81.5883 52.8243 67.7033 57.0193 65.8333 59.5193C64.7319 60.99 65.2103 66.506 65.7901 70.7926Z" fill="white"/>
<path d="M58.9015 91.2983C58.9881 91.6704 58.8266 92.0542 58.5292 92.2939C57.7859 92.8929 57.2259 93.6955 56.9219 94.6099C56.55 95.7289 56.5855 96.9433 57.0223 98.0387C57.459 99.134 58.2688 100.04 59.3086 100.596C60.3484 101.152 61.5513 101.323 62.7048 101.078C63.8583 100.833 64.8882 100.189 65.6125 99.258C66.3367 98.3274 66.7088 97.1708 66.6629 95.9925C66.6171 94.8142 66.1562 93.69 65.3618 92.8185C64.7247 92.1196 63.9059 91.6193 63.0036 91.3689C62.5965 91.256 62.2444 90.9668 62.1499 90.555C61.922 89.5253 61.744 88.4852 61.6165 87.4383C61.4789 86.3802 61.401 85.3152 61.3832 84.2483C61.377 83.7208 61.7454 83.2711 62.2559 83.1377C62.6149 83.044 62.9743 82.9561 63.3332 82.875C64.0682 82.7083 64.5049 83.575 64.8565 84.2783L64.8749 84.315C64.9516 84.4654 65.1061 84.56 65.2749 84.56H83.3755C84.1173 84.56 84.7706 84.1227 85.265 83.5697C85.6725 83.1139 86.1741 82.7624 86.6665 82.875C87.5585 83.078 88.4554 83.3192 89.344 83.5954C89.3453 83.5958 89.3453 83.5976 89.344 83.5981C89.3435 83.5982 89.343 83.5981 89.3426 83.5977C89.3401 83.5952 89.3401 83.5954 89.3427 83.6006C89.343 83.6013 89.3433 83.602 89.3435 83.6028C89.351 83.6283 89.3871 83.7385 89.4232 83.9683C89.4649 84.2383 89.4932 84.5883 89.5065 85.01C89.5299 85.85 89.4815 86.8717 89.3832 87.9017C89.2832 88.93 89.1349 89.925 88.9682 90.71C88.9092 90.9917 88.6568 91.1867 88.369 91.1867H86.6665C86.3571 91.1868 86.0538 91.2731 85.7907 91.4359C85.5275 91.5987 85.3149 91.8315 85.1765 92.1083L83.5099 95.4417C83.3939 95.6729 83.3334 95.928 83.3332 96.1867V99.52C83.3332 99.962 83.5088 100.386 83.8214 100.699C84.1339 101.011 84.5578 101.187 84.9999 101.187H86.6665C87.587 101.187 88.3332 100.44 88.3332 99.52V98.6867C88.3332 98.2264 87.9601 97.8533 87.4999 97.8533C87.0396 97.8533 86.6665 97.4802 86.6665 97.02V96.8232C86.6665 96.6633 86.7038 96.5055 86.7753 96.3625L87.1438 95.6256C87.4825 94.948 88.1751 94.52 88.9326 94.52H91.0671C91.8247 94.52 92.5172 94.948 92.856 95.6256L93.2245 96.3625C93.296 96.5055 93.3332 96.6633 93.3332 96.8232V97.02C93.3332 97.4802 92.9601 97.8533 92.4999 97.8533C92.0396 97.8533 91.6665 98.2264 91.6665 98.6867V99.52C91.6665 100.44 92.4127 101.187 93.3332 101.187H94.9999C95.4419 101.187 95.8658 101.011 96.1784 100.699C96.491 100.386 96.6665 99.962 96.6665 99.52V96.1867C96.6663 95.928 96.6058 95.6729 96.4899 95.4417L94.8232 92.1083C94.6849 91.8315 94.4722 91.5987 94.2091 91.4359C93.9459 91.2731 93.6426 91.1868 93.3332 91.1867C92.785 91.1867 92.3736 90.6847 92.4585 90.1431C92.555 89.528 92.637 88.8755 92.6999 88.2217C92.8099 87.0983 92.8665 85.9333 92.8382 84.9167C92.8374 84.8949 92.8596 84.8797 92.8796 84.8882C99.507 87.6983 105 92.3071 105 97.1367V104.187C105 105.291 104.104 106.187 103 106.187H46.9999C45.8953 106.187 44.9999 105.291 44.9999 104.187V97.1367C44.9999 92.729 49.5773 88.5038 55.4154 85.6635C56.6693 85.0535 58.0972 85.9933 58.2537 87.3789C58.2715 87.5369 58.2903 87.6946 58.3099 87.8517C58.4632 89.0767 58.6715 90.295 58.9015 91.2983Z" fill="white"/>
<path d="M61.6665 97.8771C62.5632 97.8771 63.3332 97.1438 63.3332 96.1854C63.3332 95.2288 62.5632 94.4938 61.6665 94.4938C60.7699 94.4938 59.9999 95.2271 59.9999 96.1854C59.9999 97.1421 60.7699 97.8771 61.6665 97.8771Z" fill="white"/>
</g>
<defs>
<clipPath id="clip0_2_442">
<rect width="62" height="62" fill="white" transform="translate(43.9999 43.9993)"/>
</clipPath>
</defs>
</svg>
