<svg width="72" height="23" viewBox="0 0 72 23" fill="none" xmlns="http://www.w3.org/2000/svg">
<mask id="mask0_2_212" style="mask-type:alpha" maskUnits="userSpaceOnUse" x="0" y="0" width="72" height="23">
<path d="M8.68802 23.0001C7.34006 23.0001 6.11847 22.7939 5.02326 22.3814C3.9491 21.969 3.04344 21.3813 2.30628 20.6184C1.56911 19.8348 1.00044 18.9172 0.600263 17.8655C0.200088 16.8139 0 15.6694 0 14.4322C0 12.8238 0.326459 11.4216 0.979377 10.2256C1.65336 9.0296 2.56955 8.09136 3.72795 7.41088C4.90742 6.7304 6.25538 6.39016 7.77183 6.39016C8.42475 6.39016 9.03554 6.47264 9.60422 6.6376C10.1939 6.80257 10.7205 7.05002 11.1839 7.37995C11.6587 7.68311 12.0525 8.04571 12.3655 8.46773C12.3774 8.48385 12.3963 8.49346 12.4163 8.49346C12.451 8.49346 12.4792 8.46533 12.4792 8.43062V2.49776C12.4792 1.14552 13.5754 0.0493164 14.9276 0.0493164C16.2798 0.0493164 17.376 1.14552 17.376 2.49776V14.4013C17.376 16.1334 17.018 17.649 16.3019 18.9481C15.5858 20.2472 14.5748 21.2473 13.269 21.9484C11.9842 22.6495 10.4572 23.0001 8.68802 23.0001ZM8.68802 18.8553C9.44625 18.8553 10.0992 18.68 10.6468 18.3295C11.2154 17.9583 11.6472 17.4634 11.9421 16.8448C12.2369 16.2056 12.3844 15.4942 12.3844 14.7106C12.3844 13.927 12.2369 13.2259 11.9421 12.6073C11.6472 11.9887 11.2154 11.5041 10.6468 11.1535C10.0992 10.7823 9.44625 10.5968 8.68802 10.5968C7.95086 10.5968 7.29794 10.7823 6.72927 11.1535C6.1606 11.5041 5.72883 11.9887 5.43396 12.6073C5.1391 13.2259 4.99166 13.927 4.99166 14.7106C4.99166 15.4942 5.1391 16.2056 5.43396 16.8448C5.72883 17.4634 6.1606 17.9583 6.72927 18.3295C7.29794 18.68 7.95086 18.8553 8.68802 18.8553Z" fill="#101010"/>
<path d="M51.1785 22.9853C49.3461 22.9853 47.7349 22.6554 46.3448 21.9955C44.9547 21.315 43.8701 20.3871 43.0908 19.2117C42.3325 18.0157 41.9534 16.6342 41.9534 15.067C41.9534 13.3349 42.322 11.8502 43.0592 10.6129C43.7963 9.37571 44.7757 8.42716 45.9973 7.7673C47.24 7.08682 48.609 6.74658 50.1044 6.74658C51.8104 6.74658 53.2321 7.09713 54.3694 7.79823C55.5278 8.49933 56.4019 9.45819 56.9916 10.6748C57.5813 11.8708 57.8762 13.2421 57.8762 14.7886C57.8762 15.0567 57.8551 15.3763 57.813 15.7475C57.7837 16.2361 57.3667 16.5826 56.8771 16.5826H48.665C47.8674 16.5826 47.2759 17.3695 47.8297 17.9436C48.1877 18.3147 48.6406 18.5931 49.1882 18.7787C49.7358 18.9437 50.3466 19.0262 51.0206 19.0262H54.0011C55.0944 19.0262 55.9806 19.9124 55.9806 21.0057C55.9806 22.099 55.0944 22.9853 54.0011 22.9853H51.1785ZM47.261 12.4997C47.0623 13.051 47.5115 13.5823 48.0975 13.5823H52.1591C52.678 13.5823 53.0841 13.1242 52.9477 12.6235C52.8635 12.3141 52.7266 12.0461 52.537 11.8193C52.3685 11.5718 52.1684 11.3656 51.9368 11.2006C51.7051 11.015 51.4313 10.8707 51.1153 10.7676C50.8205 10.6645 50.4835 10.6129 50.1044 10.6129C49.62 10.6129 49.1882 10.6954 48.8091 10.8604C48.43 11.0254 48.114 11.2522 47.8613 11.5409C47.6085 11.8089 47.4085 12.1286 47.261 12.4997Z" fill="#101010"/>
<path d="M67.3875 22.9615C65.8921 22.9615 64.7232 22.5491 63.8807 21.7242C63.0382 20.8788 62.617 19.7447 62.617 18.3218V5.69178C62.617 4.33082 63.7203 3.22754 65.0812 3.22754C66.4422 3.22754 67.5455 4.33082 67.5455 5.69178V18.0435C67.5455 18.2909 67.6297 18.5074 67.7982 18.693C67.9878 18.858 68.2089 18.9405 68.4617 18.9405H69.9895C71.0999 18.9405 72.0001 19.8406 72.0001 20.951C72.0001 22.0613 71.0999 22.9615 69.9895 22.9615H67.3875ZM61.9273 11.0221C60.8426 11.0221 59.9632 10.1428 59.9632 9.05802C59.9632 7.97327 60.8426 7.0939 61.9273 7.0939H70.0359C71.1207 7.0939 72.0001 7.97327 72.0001 9.05802C72.0001 10.1428 71.1207 11.0221 70.0359 11.0221H61.9273Z" fill="#101010"/>
<g clip-path="url(#clip0_2_212)">
<path d="M19.463 11.6496C19.463 10.648 19.463 9.64863 19.463 8.64706C19.463 7.28304 20.2905 6.27504 21.5745 6.19355C22.9604 6.10561 23.8898 7.23372 23.9041 8.44975C23.9244 10.4507 23.9041 12.4539 23.9122 14.4549C23.9183 15.7374 24.4197 16.7754 25.398 17.5368C27.3709 19.0766 30.1917 18.0601 30.8887 15.5787C31.0171 15.1197 31.0803 14.6607 31.0762 14.1803C31.0681 12.3209 31.0721 10.4636 31.0721 8.60417C31.0721 7.28304 31.9119 6.27075 33.1633 6.18926C34.1191 6.12706 34.9955 6.62463 35.3746 7.72914C35.4786 8.03154 35.5275 8.34681 35.5275 8.67494C35.5214 10.5773 35.5397 12.4818 35.5214 14.3841C35.4949 17.1507 34.4779 19.4348 32.4051 21.1548C31.1761 22.1757 29.7576 22.7248 28.1923 22.8727C26.2887 23.0507 24.5399 22.5639 22.9726 21.4551C21.7029 20.5586 20.7551 19.3469 20.1498 17.8435C19.6546 16.6146 19.4487 15.3385 19.463 14.0088C19.4711 13.2217 19.463 12.4367 19.463 11.6496Z" fill="#101010"/>
<path opacity="0.6" d="M39.8646 11.7765C39.8646 12.7137 39.8728 13.6531 39.8646 14.5903C39.8483 16.3575 39.3306 17.9596 38.3686 19.403C37.0438 21.3911 35.181 22.4549 32.9411 22.8431C32.4825 22.9224 32.0137 22.9503 31.545 22.9245C31.4634 22.9203 31.3452 22.946 31.3187 22.8495C31.2861 22.7251 31.4166 22.7015 31.492 22.6608C33.6279 21.5133 35.0424 19.714 35.8128 17.3462C36.0798 16.5248 36.1919 15.6669 36.2265 14.7941C36.304 12.8381 36.251 10.8822 36.2592 8.92621C36.2612 8.36859 36.2306 7.79811 36.0064 7.27052C35.9229 7.07106 36.0207 6.94882 36.143 6.82657C36.7768 6.20032 37.5126 6.03304 38.334 6.30327C39.1431 6.56921 39.616 7.16972 39.8055 8.02973C39.8565 8.25707 39.8666 8.4887 39.8666 8.72247C39.8666 9.74119 39.8666 10.7599 39.8666 11.7786L39.8646 11.7765Z" fill="#A4A4A4"/>
<path opacity="0.6" d="M28.2473 11.4953C28.2473 12.4325 28.2432 13.3719 28.2473 14.3091C28.2514 15.1884 28.447 16.0055 28.9586 16.7218C29.1379 16.9728 29.1196 17.0092 28.8444 17.1465C27.699 17.7256 26.6188 17.6376 25.6405 16.7626C24.9863 16.1771 24.6581 15.3986 24.652 14.4957C24.6398 12.5826 24.652 10.6717 24.6439 8.75864C24.6439 8.24821 24.5868 7.74206 24.3871 7.26809C24.3218 7.11367 24.3606 7 24.4625 6.8799C25.4245 5.7518 27.3668 6.04133 27.9823 7.40964C28.1556 7.79354 28.2534 8.19459 28.2493 8.62567C28.2412 9.5822 28.2473 10.5387 28.2473 11.4931V11.4953Z" fill="#A4A4A4"/>
</g>
</mask>
<g mask="url(#mask0_2_212)">
<rect x="-0.115845" y="-0.177246" width="72.1133" height="23.1558" fill="url(#paint0_linear_2_212)"/>
</g>
<defs>
<linearGradient id="paint0_linear_2_212" x1="-0.115845" y1="11.4007" x2="71.9975" y2="11.4007" gradientUnits="userSpaceOnUse">
<stop stop-color="#6AB6FC"/>
<stop offset="0.203125" stop-color="#5B63DD"/>
<stop offset="0.40625" stop-color="#9A44B3"/>
<stop offset="0.60331" stop-color="#CA4587"/>
<stop offset="0.807292" stop-color="#D45062"/>
<stop offset="1" stop-color="#E77944"/>
</linearGradient>
<clipPath id="clip0_2_212">
<rect width="20.4037" height="16.7543" fill="white" transform="translate(19.463 6.17871)"/>
</clipPath>
</defs>
</svg>
