<svg width="349" height="114" viewBox="0 0 349 114" fill="none" xmlns="http://www.w3.org/2000/svg">
<mask id="mask0_2_395" style="mask-type:alpha" maskUnits="userSpaceOnUse" x="0" y="-1" width="349" height="115">
<path d="M42.1102 113.62C35.5767 113.62 29.6558 112.6 24.3473 110.558C19.141 108.516 14.7513 105.607 11.1783 101.83C7.60535 97.9504 4.84905 93.4076 2.90943 88.2012C0.96981 82.9949 0 77.3291 0 71.204C0 63.2414 1.58232 56.2996 4.74697 50.3786C8.0137 44.4577 12.4544 39.8128 18.0691 36.444C23.7859 33.0751 30.3193 31.3907 37.6695 31.3907C40.8341 31.3907 43.7946 31.7991 46.5509 32.6158C49.4093 33.4324 51.9614 34.6575 54.2073 36.2908C56.5089 37.7919 58.4181 39.5872 59.9349 41.6768C59.9925 41.756 60.0843 41.8034 60.1822 41.8034C60.3497 41.8034 60.4855 41.6677 60.4855 41.5001V11.8669C60.4855 5.31273 65.7988 -0.000488281 72.353 -0.000488281C78.9071 -0.000488281 84.2204 5.31273 84.2204 11.8669V71.0509C84.2204 79.6261 82.4849 87.1293 79.014 93.5607C75.5431 99.9921 70.643 104.943 64.3137 108.414C58.0865 111.885 50.6853 113.62 42.1102 113.62ZM42.1102 93.1013C45.7853 93.1013 48.9499 92.2336 51.6041 90.4981C54.3604 88.6606 56.4532 86.2106 57.8824 83.148C59.3116 79.9834 60.0262 76.4614 60.0262 72.5822C60.0262 68.7029 59.3116 65.232 57.8824 62.1695C56.4532 59.1069 54.3604 56.7079 51.6041 54.9725C48.9499 53.1349 45.7853 52.2161 42.1102 52.2161C38.5372 52.2161 35.3726 53.1349 32.6162 54.9725C29.8599 56.7079 27.7672 59.1069 26.338 62.1695C24.9088 65.232 24.1942 68.7029 24.1942 72.5822C24.1942 76.4614 24.9088 79.9834 26.338 83.148C27.7672 86.2106 29.8599 88.6606 32.6162 90.4981C35.3726 92.2336 38.5372 93.1013 42.1102 93.1013Z" fill="#101010"/>
<path d="M248.058 113.547C239.177 113.547 231.367 111.913 224.63 108.647C217.892 105.278 212.635 100.684 208.857 94.8651C205.182 88.9442 203.345 82.1044 203.345 74.346C203.345 65.7708 205.131 58.4207 208.704 52.2955C212.277 46.1704 217.024 41.4745 222.945 38.2078C228.968 34.8389 235.604 33.1545 242.852 33.1545C251.121 33.1545 258.012 34.89 263.524 38.3609C269.139 41.8318 273.375 46.5788 276.234 52.6018C279.092 58.5227 280.521 65.3114 280.521 72.9678C280.521 74.2949 280.419 75.8772 280.215 77.7148C280.073 80.1312 278.013 81.8492 275.593 81.8492H235.999C232.063 81.8492 229.124 85.725 231.827 88.5869C233.562 90.4244 235.757 91.8025 238.411 92.7213C241.065 93.538 244.026 93.9463 247.293 93.9463H261.533C266.946 93.9463 271.334 98.334 271.334 103.747C271.334 109.159 266.946 113.547 261.533 113.547H248.058ZM229.07 61.6363C228.105 64.3715 230.333 66.9958 233.233 66.9958H252.713C255.283 66.9958 257.295 64.7315 256.633 62.2489C256.225 60.7176 255.561 59.3905 254.643 58.2675C253.826 57.0425 252.856 56.0216 251.733 55.205C250.61 54.2862 249.283 53.5716 247.752 53.0612C246.323 52.5508 244.689 52.2955 242.852 52.2955C240.504 52.2955 238.411 52.7039 236.574 53.5206C234.736 54.3372 233.205 55.4602 231.98 56.8894C230.755 58.2165 229.785 59.7988 229.07 61.6363Z" fill="#101010"/>
<path d="M326.621 113.43C319.373 113.43 313.707 111.388 309.624 107.304C305.54 103.119 303.498 97.5042 303.498 90.4603V27.6778C303.498 21.0814 308.846 15.7339 315.442 15.7339C322.039 15.7339 327.386 21.0814 327.386 27.6779V89.0822C327.386 90.3072 327.795 91.3791 328.611 92.2979C329.53 93.1146 330.602 93.5229 331.827 93.5229H339.024C344.521 93.5229 348.977 97.9791 348.977 103.476C348.977 108.973 344.521 113.43 339.024 113.43H326.621ZM300.359 54.3221C294.989 54.3221 290.636 49.9687 290.636 44.5985C290.636 39.2283 294.989 34.8749 300.359 34.8749H339.254C344.624 34.8749 348.977 39.2283 348.977 44.5985C348.977 49.9687 344.624 54.3221 339.254 54.3221H300.359Z" fill="#101010"/>
<g clip-path="url(#clip0_2_395)">
<path d="M94.3343 57.4297C94.3343 52.4713 94.3343 47.5236 94.3343 42.5652C94.3343 35.8124 98.345 30.8221 104.569 30.4187C111.286 29.9834 115.791 35.5682 115.86 41.5883C115.959 51.4945 115.86 61.4113 115.899 71.3175C115.929 77.6668 118.359 82.8057 123.101 86.5749C132.663 94.1983 146.335 89.1656 149.714 76.8811C150.336 74.6089 150.643 72.3368 150.623 69.9584C150.583 60.753 150.603 51.5582 150.603 42.3528C150.603 35.8124 154.673 30.8009 160.739 30.3974C165.372 30.0895 169.619 32.5528 171.457 38.0208C171.961 39.5179 172.198 41.0787 172.198 42.7032C172.168 52.121 172.257 61.5493 172.168 70.9671C172.04 84.6637 167.11 95.9714 157.064 104.487C151.107 109.541 144.231 112.259 136.645 112.991C127.418 113.873 118.942 111.462 111.345 105.973C105.191 101.535 100.597 95.5361 97.6634 88.0932C95.2629 82.0094 94.2651 75.6919 94.3343 69.109C94.3738 65.2124 94.3343 61.3264 94.3343 57.4297Z" fill="#101010"/>
<path opacity="0.6" d="M193.22 58.0564C193.22 62.6962 193.259 67.3467 193.22 71.9866C193.141 80.7355 190.632 88.6668 185.969 95.8124C179.548 105.655 170.519 110.921 159.662 112.843C157.439 113.236 155.167 113.374 152.895 113.246C152.5 113.225 151.927 113.353 151.799 112.875C151.641 112.259 152.273 112.142 152.638 111.94C162.991 106.26 169.847 97.3519 173.581 85.6302C174.875 81.5636 175.418 77.3166 175.586 72.9953C175.962 63.3121 175.705 53.6289 175.744 43.9456C175.754 41.1851 175.606 38.3608 174.519 35.7489C174.114 34.7615 174.589 34.1563 175.181 33.5511C178.254 30.4507 181.82 29.6226 185.801 30.9604C189.723 32.277 192.015 35.2499 192.933 39.5075C193.18 40.633 193.23 41.7797 193.23 42.937C193.23 47.9803 193.23 53.0237 193.23 58.067L193.22 58.0564Z" fill="#A4A4A4"/>
<path opacity="0.6" d="M136.911 56.6653C136.911 61.3051 136.892 65.9556 136.911 70.5955C136.931 74.9487 137.879 78.994 140.359 82.5402C141.228 83.7825 141.139 83.963 139.806 84.6425C134.254 87.5093 129.018 87.0739 124.277 82.742C121.106 79.8434 119.515 75.9892 119.485 71.5192C119.426 62.0484 119.485 52.5881 119.446 43.1173C119.446 40.5903 119.169 38.0846 118.201 35.7381C117.885 34.9736 118.073 34.4109 118.567 33.8163C123.229 28.2315 132.644 29.6648 135.627 36.4388C136.467 38.3394 136.941 40.3249 136.921 42.459C136.882 47.1944 136.911 51.9299 136.911 56.6547V56.6653Z" fill="#A4A4A4"/>
</g>
</mask>
<g mask="url(#mask0_2_395)">
<rect x="-0.56134" y="-1.12402" width="349.528" height="114.636" fill="url(#paint0_linear_2_395)"/>
</g>
<defs>
<linearGradient id="paint0_linear_2_395" x1="-0.561339" y1="56.1941" x2="348.966" y2="56.1941" gradientUnits="userSpaceOnUse">
<stop stop-color="#6AB6FC"/>
<stop offset="0.203125" stop-color="#5B63DD"/>
<stop offset="0.40625" stop-color="#9A44B3"/>
<stop offset="0.60331" stop-color="#CA4587"/>
<stop offset="0.807292" stop-color="#D45062"/>
<stop offset="1" stop-color="#E77944"/>
</linearGradient>
<clipPath id="clip0_2_395">
<rect width="98.8951" height="82.9443" fill="white" transform="translate(94.335 30.3445)"/>
</clipPath>
</defs>
</svg>
