<svg width="84" height="28" viewBox="0 0 84 28" fill="none" xmlns="http://www.w3.org/2000/svg">
<mask id="mask0_2_258" style="mask-type:alpha" maskUnits="userSpaceOnUse" x="0" y="0" width="84" height="28">
<path d="M10.1016 27.6279C8.53428 27.6279 7.11394 27.383 5.84054 26.8932C4.59162 26.4035 3.53861 25.7055 2.6815 24.7995C1.8244 23.8689 1.16321 22.7792 0.697926 21.5302C0.232642 20.2813 0 18.9222 0 17.4529C0 15.5428 0.379574 13.8775 1.13872 12.4572C1.92236 11.0369 2.98761 9.92263 4.33449 9.11451C5.70585 8.30638 7.27312 7.90232 9.0363 7.90232C9.79545 7.90232 10.5056 8.00027 11.1668 8.19618C11.8525 8.39209 12.4647 8.68596 13.0035 9.07777C13.5556 9.43785 14.0136 9.86852 14.3774 10.3698C14.3912 10.3888 14.4133 10.4002 14.4367 10.4002C14.4769 10.4002 14.5095 10.3676 14.5095 10.3274V3.21887C14.5095 1.64663 15.7841 0.37207 17.3563 0.37207C18.9286 0.37207 20.2031 1.64663 20.2031 3.21887V17.4161C20.2031 19.4732 19.7868 21.2731 18.9542 22.8159C18.1216 24.3587 16.9461 25.5464 15.4278 26.379C13.934 27.2116 12.1586 27.6279 10.1016 27.6279ZM10.1016 22.7057C10.9831 22.7057 11.7423 22.4975 12.379 22.0812C13.0402 21.6404 13.5422 21.0527 13.885 20.3181C14.2279 19.5589 14.3993 18.714 14.3993 17.7835C14.3993 16.8529 14.2279 16.0203 13.885 15.2856C13.5422 14.551 13.0402 13.9755 12.379 13.5592C11.7423 13.1184 10.9831 12.898 10.1016 12.898C9.24445 12.898 8.48531 13.1184 7.82411 13.5592C7.16292 13.9755 6.6609 14.551 6.31806 15.2856C5.97522 16.0203 5.8038 16.8529 5.8038 17.7835C5.8038 18.714 5.97522 19.5589 6.31806 20.3181C6.6609 21.0527 7.16292 21.6404 7.82411 22.0812C8.48531 22.4975 9.24445 22.7057 10.1016 22.7057Z" fill="#101010"/>
<path d="M59.5052 27.6102C57.3747 27.6102 55.5013 27.2184 53.8851 26.4348C52.2688 25.6266 51.0077 24.5247 50.1016 23.1288C49.22 21.7085 48.7792 20.0677 48.7792 18.2066C48.7792 16.1496 49.2078 14.3864 50.0649 12.9171C50.922 11.4477 52.0607 10.3213 53.481 9.53763C54.9258 8.7295 56.5176 8.32544 58.2563 8.32544C60.2399 8.32544 61.8929 8.74175 63.2152 9.57436C64.5621 10.407 65.5784 11.5457 66.2641 12.9905C66.9498 14.4109 67.2926 16.0394 67.2926 17.876C67.2926 18.1944 67.2681 18.5739 67.2191 19.0147C67.185 19.5944 66.691 20.0065 66.1103 20.0065H56.6125C55.6682 20.0065 54.9632 20.9362 55.6115 21.6228C56.0278 22.0636 56.5543 22.3942 57.191 22.6145C57.8278 22.8105 58.5379 22.9084 59.3216 22.9084H62.7377C64.0361 22.9084 65.0886 23.9609 65.0886 25.2593C65.0886 26.5577 64.0361 27.6102 62.7377 27.6102H59.5052ZM54.9503 15.1578C54.7188 15.8139 55.2531 16.4434 55.9489 16.4434H60.6219C61.2383 16.4434 61.7211 15.9002 61.5623 15.3047C61.4643 14.9374 61.3051 14.619 61.0847 14.3496C60.8888 14.0558 60.6562 13.8109 60.3868 13.615C60.1174 13.3946 59.7991 13.2232 59.4318 13.1007C59.0889 12.9783 58.6971 12.9171 58.2563 12.9171C57.6931 12.9171 57.191 13.015 56.7503 13.2109C56.3095 13.4068 55.9421 13.6762 55.6483 14.019C55.3544 14.3374 55.1218 14.717 54.9503 15.1578Z" fill="#101010"/>
<path d="M78.3514 27.5821C76.6127 27.5821 75.2535 27.0923 74.274 26.1128C73.2945 25.1087 72.8047 23.7619 72.8047 22.0722V7.01165C72.8047 5.42926 74.0875 4.14648 75.6699 4.14648C77.2522 4.14648 78.535 5.42926 78.535 7.01165V21.7416C78.535 22.0354 78.633 22.2926 78.8289 22.513C79.0493 22.7089 79.3064 22.8068 79.6003 22.8068H81.3267C82.6454 22.8068 83.7144 23.8758 83.7144 25.1945C83.7144 26.5131 82.6454 27.5821 81.3267 27.5821H78.3514ZM72.0517 13.4032C70.7634 13.4032 69.7191 12.3589 69.7191 11.0706C69.7191 9.78242 70.7634 8.7381 72.0517 8.7381H81.3818C82.67 8.7381 83.7144 9.78242 83.7144 11.0706C83.7144 12.3589 82.67 13.4032 81.3818 13.4032H72.0517Z" fill="#101010"/>
<g clip-path="url(#clip0_2_258)">
<path d="M22.6295 14.149C22.6295 12.9595 22.6295 11.7726 22.6295 10.5832C22.6295 8.96331 23.5916 7.76623 25.0846 7.66944C26.696 7.56502 27.7766 8.90473 27.7932 10.3489C27.8169 12.7252 27.7932 15.1041 27.8026 17.4804C27.8098 19.0035 28.3927 20.2362 29.5302 21.1404C31.8241 22.9691 35.1038 21.7619 35.9142 18.815C36.0635 18.27 36.137 17.7249 36.1322 17.1544C36.1228 14.9462 36.1275 12.7405 36.1275 10.5322C36.1275 8.96331 37.1038 7.76113 38.5588 7.66435C39.6702 7.59049 40.6892 8.18139 41.13 9.49308C41.2508 9.8522 41.3077 10.2266 41.3077 10.6163C41.3006 12.8755 41.3219 15.1372 41.3006 17.3964C41.2698 20.682 40.0873 23.3945 37.6773 25.4372C36.2484 26.6495 34.599 27.3016 32.7791 27.4773C30.5657 27.6887 28.5325 27.1105 26.7102 25.7937C25.2339 24.7291 24.1319 23.2901 23.4281 21.5046C22.8523 20.0452 22.6129 18.5298 22.6295 16.9506C22.639 16.0159 22.6295 15.0837 22.6295 14.149Z" fill="#101010"/>
<path opacity="0.6" d="M46.3505 14.2989C46.3505 15.412 46.36 16.5275 46.3505 17.6406C46.3316 19.7393 45.7297 21.6419 44.6112 23.356C43.0708 25.717 40.9049 26.9803 38.3006 27.4413C37.7674 27.5356 37.2223 27.5687 36.6773 27.5381C36.5825 27.533 36.4451 27.5636 36.4143 27.449C36.3763 27.3013 36.528 27.2732 36.6157 27.2249C39.0992 25.8622 40.7438 23.7253 41.6395 20.9134C41.95 19.9379 42.0803 18.9192 42.1206 17.8825C42.2106 15.5597 42.149 13.2368 42.1585 10.914C42.1609 10.2518 42.1253 9.57429 41.8646 8.94773C41.7675 8.71086 41.8812 8.56568 42.0234 8.42051C42.7604 7.67679 43.6159 7.47812 44.5709 7.79904C45.5117 8.11487 46.0614 8.82802 46.2818 9.84936C46.3411 10.1193 46.3529 10.3944 46.3529 10.672C46.3529 11.8819 46.3529 13.0917 46.3529 14.3015L46.3505 14.2989Z" fill="#A4A4A4"/>
<path opacity="0.6" d="M32.8431 13.9652C32.8431 15.0783 32.8384 16.1939 32.8431 17.3069C32.8478 18.3511 33.0753 19.3215 33.6701 20.1722C33.8787 20.4702 33.8573 20.5135 33.5374 20.6765C32.2056 21.3642 30.9497 21.2598 29.8122 20.2206C29.0515 19.5253 28.67 18.6007 28.6629 17.5285C28.6487 15.2566 28.6629 12.9872 28.6534 10.7153C28.6534 10.1091 28.5871 9.50803 28.3548 8.94515C28.279 8.76177 28.324 8.62678 28.4425 8.48415C29.561 7.14444 31.8194 7.48828 32.535 9.11325C32.7365 9.56916 32.8502 10.0454 32.8455 10.5574C32.836 11.6933 32.8431 12.8293 32.8431 13.9627V13.9652Z" fill="#A4A4A4"/>
</g>
</mask>
<g mask="url(#mask0_2_258)">
<rect x="-0.134705" y="0.102539" width="83.8461" height="27.4994" fill="url(#paint0_linear_2_258)"/>
</g>
<defs>
<linearGradient id="paint0_linear_2_258" x1="-0.134704" y1="13.8522" x2="83.7114" y2="13.8522" gradientUnits="userSpaceOnUse">
<stop stop-color="#6AB6FC"/>
<stop offset="0.203125" stop-color="#5B63DD"/>
<stop offset="0.40625" stop-color="#9A44B3"/>
<stop offset="0.60331" stop-color="#CA4587"/>
<stop offset="0.807292" stop-color="#D45062"/>
<stop offset="1" stop-color="#E77944"/>
</linearGradient>
<clipPath id="clip0_2_258">
<rect width="23.7234" height="19.897" fill="white" transform="translate(22.6295 7.65137)"/>
</clipPath>
</defs>
</svg>
