<svg width="52" height="52" viewBox="0 0 52 52" fill="none" xmlns="http://www.w3.org/2000/svg">
<path d="M35.4034 4.33252C42.7484 4.33252 47.6668 9.48919 47.6668 17.1592V34.863C47.6668 42.5092 42.7484 47.6659 35.4034 47.6659H16.6184C9.27343 47.6659 4.33343 42.5092 4.33343 34.863V17.1592C4.33343 9.48919 9.27343 4.33252 16.6184 4.33252H35.4034ZM35.0568 19.4992C34.3201 18.7625 33.1068 18.7625 32.3701 19.4992L23.4218 28.4475L19.6301 24.6559C18.8934 23.9192 17.6801 23.9192 16.9434 24.6559C16.2068 25.3925 16.2068 26.5842 16.9434 27.3425L22.1001 32.4775C22.4684 32.8459 22.9451 33.0192 23.4218 33.0192C23.9201 33.0192 24.3968 32.8459 24.7651 32.4775L35.0568 22.1859C35.7934 21.4492 35.7934 20.2575 35.0568 19.4992Z" fill="#0ACEA1"/>
</svg>
