<svg width="21" height="12" viewBox="0 0 21 12" fill="none" xmlns="http://www.w3.org/2000/svg">
<path d="M0.500017 5.62721L0.49999 5.62305C0.499477 5.54308 0.515091 5.46382 0.5459 5.39002C0.576711 5.31621 0.622083 5.24938 0.679302 5.19351L0.679325 5.19353L0.683315 5.18955L5.19532 0.683547L5.19567 0.683198C5.25371 0.625121 5.32262 0.579047 5.39848 0.547613C5.47433 0.516179 5.55564 0.499999 5.63775 0.499999C5.71986 0.499999 5.80117 0.516179 5.87702 0.547613C5.95287 0.579046 6.02179 0.625119 6.07983 0.683199L6.08034 0.683703C6.13824 0.741479 6.18418 0.810109 6.21552 0.885661C6.24687 0.961218 6.263 1.04221 6.263 1.12401C6.263 1.20581 6.24687 1.2868 6.21552 1.36236C6.18421 1.43784 6.13833 1.50641 6.0805 1.56415C6.08045 1.56421 6.08039 1.56426 6.08034 1.56432L3.48157 4.14658L2.62144 5.00126L3.834 5.00126L19.875 5.00126C20.0408 5.00126 20.1997 5.06711 20.3169 5.18432C20.4342 5.30153 20.5 5.4605 20.5 5.62626C20.5 5.79202 20.4342 5.95099 20.3169 6.0682C20.1997 6.18541 20.0408 6.25126 19.875 6.25126L3.849 6.25126L2.64387 6.25126L3.49503 7.1044L6.07204 9.6874L6.0725 9.68787C6.13028 9.74563 6.17611 9.81421 6.20739 9.88968C6.23866 9.96516 6.25475 10.0461 6.25475 10.1278C6.25475 10.2095 6.23866 10.2904 6.20739 10.3658C6.17614 10.4412 6.13037 10.5098 6.07267 10.5675C5.95548 10.6845 5.79662 10.7503 5.631 10.7503C5.46538 10.7503 5.30652 10.6845 5.18933 10.5675L5.18919 10.5673L0.770193 6.15735L0.753164 6.14035L0.734583 6.12507C0.661075 6.06462 0.601902 5.98861 0.561332 5.90251C0.520765 5.81641 0.499817 5.72239 0.500017 5.62721Z" fill="white" stroke="white"/>
</svg>
