<svg width="70" height="72" viewBox="0 0 70 72" fill="none" xmlns="http://www.w3.org/2000/svg">
<path d="M5.81607 46.0195C6.64418 46.2545 7.4034 45.5711 7.32468 44.7139C6.9835 40.9989 4.95686 39.1148 2.34062 37.8659C1.52959 37.4787 0.577643 37.9771 0.541259 38.8751C0.401138 42.3333 2.68919 45.1324 5.81607 46.0195ZM6.88978 20.4811C7.55704 21.0258 8.52571 20.6993 8.79267 19.8803C9.94817 16.3357 8.83208 13.7963 6.91816 11.6136C6.32533 10.9375 5.25347 11.0215 4.86701 11.8334C3.38123 14.9548 4.37408 18.4276 6.88978 20.4811ZM11.0953 35.1583C10.2666 35.3942 9.50647 34.7101 9.58587 33.8522C9.92951 30.1394 11.9548 28.2512 14.5716 27.0041C15.3825 26.6177 16.3333 27.1168 16.3691 28.0144C16.507 31.4706 14.2209 34.2687 11.0953 35.1583ZM11.0946 43.7697C10.2661 44.0051 9.50647 43.3212 9.58581 42.4635C9.92923 38.7514 11.9542 36.8662 14.5708 35.6182C15.382 35.2313 16.3335 35.7304 16.3692 36.6284C16.5064 40.0836 14.2201 42.8816 11.0946 43.7697ZM11.096 26.5503C10.2671 26.7866 9.50647 26.1025 9.58589 25.2443C9.92953 21.5307 11.9543 19.6421 14.5705 18.3931C15.3816 18.0059 16.3334 18.5052 16.3691 19.4034C16.5069 22.8617 14.2212 25.6594 11.096 26.5503ZM5.81543 37.4092C6.64372 37.6447 7.40342 36.9613 7.32454 36.1038C6.9829 32.3898 4.95566 30.5013 2.33894 29.2541C1.52848 28.8678 0.577904 29.3661 0.541331 30.2632C0.400372 33.7207 2.68835 36.5205 5.81543 37.4092ZM5.81339 28.7996C6.64228 29.0363 7.40344 28.3526 7.3244 27.4942C6.98241 23.7802 4.95625 21.892 2.34081 20.642C1.52984 20.2544 0.57776 20.753 0.541292 21.6511C0.400819 25.1106 2.68764 27.9071 5.81339 28.7996ZM47.9109 68.9303C48.4926 69.9383 47.7651 71.1979 46.6013 71.1979H21.8906C20.7268 71.1979 19.9993 69.9381 20.5811 68.9301L32.9378 47.5206C33.5198 46.5123 34.9751 46.5124 35.557 47.5208L47.9109 68.9303ZM26.5308 65.4938C25.9489 66.5018 26.6764 67.7617 27.8403 67.7617H40.6525C41.8164 67.7617 42.5439 66.5018 41.962 65.4938L35.5558 54.3968C34.9739 53.3887 33.5189 53.3887 32.9369 54.3968L26.5308 65.4938ZM2.60038 52.0634C2.81944 52.8694 3.65045 53.345 4.45634 53.1258L64.9849 36.6594C65.7898 36.4404 66.2653 35.611 66.0476 34.8058L65.8943 34.2387C65.6762 33.4317 64.8445 32.9549 64.0378 33.1743L3.50868 49.6419C2.70306 49.8611 2.22756 50.6918 2.44655 51.4975L2.60038 52.0634ZM49.4715 0.36055C48.5763 0.187223 47.8251 0.941127 48.0227 1.83128C48.5584 4.24549 50.1834 8.39886 55.031 8.55264C55.7419 8.57519 56.3073 8.00247 56.2462 7.29393C56.0738 5.29574 55.0092 1.43275 49.4715 0.36055ZM57.7439 31.2985C56.8283 30.8046 55.5003 30.8037 54.5847 31.2977C54.5574 31.3124 54.53 31.3269 54.5024 31.3411C53.8411 31.6809 53.1078 31.8571 52.3643 31.8548C51.0861 31.8548 49.8341 31.2539 48.9895 30.4116C47.3285 28.5996 45.1941 24.6354 45.0316 24.3316C45.0243 24.3179 45.0182 24.306 45.0114 24.292C43.7626 21.7538 43.0936 19.7878 43.0936 17.8003C43.0936 13.5548 46.5299 9.87274 50.7867 9.87274C52.2995 9.8717 53.7671 10.3175 55.0124 11.138C55.7009 11.5915 56.6307 11.5913 57.319 11.1376C58.5636 10.3171 60.0306 9.87141 61.5427 9.87274C65.7985 9.87274 69.2347 13.5548 69.2347 17.8003C69.2347 19.7877 68.5647 21.7536 67.3171 24.2917C67.3102 24.3059 67.304 24.3179 67.2966 24.3319C67.133 24.6376 64.9994 28.599 63.3388 30.4116C62.4943 31.2539 61.2423 31.8548 59.9629 31.8548C59.2195 31.8573 58.4864 31.6812 57.8252 31.3413C57.798 31.3273 57.7709 31.313 57.7439 31.2985Z" fill="white"/>
</svg>
