<svg width="80" height="79" viewBox="0 0 80 79" fill="none" xmlns="http://www.w3.org/2000/svg">
<mask id="path-1-outside-1_2_409" maskUnits="userSpaceOnUse" x="-0.427734" y="-0.000488281" width="80" height="79" fill="black">
<rect fill="white" x="-0.427734" y="-0.000488281" width="80" height="79"/>
<path d="M22.9156 7.52165C25.9445 5.22769 29.6423 3.99044 33.4418 3.99956C34.5078 3.99956 35.3561 4.55475 35.8491 4.93671C36.3999 5.37198 36.9151 5.92716 37.377 6.48235C37.7045 6.88014 37.8835 7.37946 37.8833 7.89474V23.9862H33.0643C32.5405 22.5045 31.5097 21.2557 30.1541 20.4605C28.7985 19.6653 27.2055 19.3749 25.6565 19.6407C24.1076 19.9064 22.7024 20.7112 21.6895 21.9128C20.6765 23.1144 20.1209 24.6353 20.1209 26.2069C20.1209 27.7785 20.6765 29.2995 21.6895 30.5011C22.7024 31.7027 24.1076 32.5074 25.6565 32.7732C27.2055 33.039 28.7985 32.7486 30.1541 31.9534C31.5097 31.1582 32.5405 29.9094 33.0643 28.4277H37.8833V70.2442C37.8835 70.573 37.8107 70.8977 37.6702 71.195C37.5296 71.4922 37.3248 71.7546 37.0705 71.963C35.0186 73.6419 32.2737 75.0632 29.0004 75.0632C23.7328 75.0632 19.811 72.4072 17.2749 69.2315C15.4528 66.9688 14.2048 64.2992 13.6373 61.45C11.9117 60.99 10.3118 60.1475 8.956 58.985C6.50431 56.8842 4.57227 53.4776 4.57227 48.4143C4.57227 45.9404 4.7366 43.7064 5.10524 41.7521H19.0071C21.8318 41.7521 24.1592 43.8618 24.5145 46.5889C23.0375 47.1234 21.7968 48.1626 21.0116 49.523C20.2264 50.8835 19.9471 52.4776 20.223 54.0239C20.499 55.5703 21.3125 56.9694 22.5198 57.9742C23.7271 58.979 25.2507 59.5249 26.8214 59.5156C28.3922 59.5062 29.9091 58.9421 31.1043 57.9229C32.2996 56.9037 33.0963 55.495 33.3537 53.9455C33.6112 52.3959 33.3129 50.8053 32.5115 49.4543C31.71 48.1034 30.457 47.0791 28.9737 46.5622C28.7865 44.047 27.6552 41.6956 25.8067 39.9797C23.9582 38.2639 21.5292 37.3104 19.0071 37.3106H6.53096C7.2105 35.9871 8.121 34.8678 9.30688 34.0728C9.60684 33.8742 9.92164 33.699 10.2485 33.5487C8.98709 29.8534 9.31576 25.5274 10.5327 22.1297C11.31 19.9445 12.5447 17.8792 14.2414 16.5023C15.3606 15.5918 16.6931 14.9922 18.1499 14.8767C18.7894 11.8432 20.5882 9.33377 22.92 7.52165H22.9156ZM42.3248 59.518H45.6559C48.3063 59.518 50.8481 58.4651 52.7222 56.591C54.5964 54.7169 55.6492 52.1751 55.6492 49.5247V41.3746C57.1309 40.8507 58.3797 39.8199 59.1749 38.4643C59.9701 37.1088 60.2605 35.5157 59.9948 33.9668C59.729 32.4178 58.9242 31.0127 57.7226 29.9997C56.5211 28.9868 55.0001 28.4312 53.4285 28.4312C51.8569 28.4312 50.3359 28.9868 49.1343 29.9997C47.9328 31.0127 47.128 32.4178 46.8622 33.9668C46.5965 35.5157 46.8868 37.1088 47.682 38.4643C48.4772 39.8199 49.726 40.8507 51.2077 41.3746V49.5247C51.2077 52.5893 48.7205 55.0765 45.6559 55.0765H42.3248V7.89474C42.3246 7.37946 42.5036 6.88014 42.8311 6.48235C43.2886 5.92716 43.8083 5.37198 44.359 4.93671C44.8476 4.55475 45.6959 3.99956 46.7663 3.99956C50.5659 3.99044 54.2636 5.22769 57.2926 7.52165C59.6243 9.33377 61.4231 11.8432 62.0583 14.8767C63.5151 14.9878 64.8475 15.5918 65.9668 16.5023C67.6634 17.8792 68.8981 19.9445 69.6754 22.1297C70.8924 25.5274 71.221 29.8578 69.9597 33.5443C70.2794 33.6953 70.5948 33.8729 70.9012 34.0772C72.1227 34.89 73.0509 36.0537 73.7349 37.4261C75.0807 40.1132 75.6359 43.8618 75.6359 48.4143C75.6359 53.482 73.7038 56.8842 71.2521 58.985C69.8964 60.1475 68.2964 60.99 66.5708 61.45C66.1267 63.9284 64.883 66.7976 62.9332 69.2315C60.4016 72.4072 56.4753 75.0632 51.2077 75.0632C47.9388 75.0632 45.1895 73.6419 43.142 71.963C42.8869 71.755 42.6813 71.4929 42.5399 71.1956C42.3986 70.8983 42.3251 70.5733 42.3248 70.2442V59.518ZM26.7796 23.9862C26.1907 23.9862 25.6258 24.2202 25.2093 24.6366C24.7929 25.0531 24.5589 25.618 24.5589 26.2069C24.5589 26.7959 24.7929 27.3608 25.2093 27.7772C25.6258 28.1937 26.1907 28.4277 26.7796 28.4277C27.3686 28.4277 27.9335 28.1937 28.3499 27.7772C28.7664 27.3608 29.0004 26.7959 29.0004 26.2069C29.0004 25.618 28.7664 25.0531 28.3499 24.6366C27.9335 24.2202 27.3686 23.9862 26.7796 23.9862ZM26.7796 50.6351C26.1907 50.6351 25.6258 50.869 25.2093 51.2855C24.7929 51.702 24.5589 52.2668 24.5589 52.8558C24.5589 53.4448 24.7929 54.0096 25.2093 54.4261C25.6258 54.8426 26.1907 55.0765 26.7796 55.0765C27.3686 55.0765 27.9335 54.8426 28.3499 54.4261C28.7664 54.0096 29.0004 53.4448 29.0004 52.8558C29.0004 52.2668 28.7664 51.702 28.3499 51.2855C27.9335 50.869 27.3686 50.6351 26.7796 50.6351ZM53.4285 37.3106C54.0175 37.3106 54.5823 37.0767 54.9988 36.6602C55.4153 36.2437 55.6492 35.6789 55.6492 35.0899C55.6492 34.5009 55.4153 33.9361 54.9988 33.5196C54.5823 33.1031 54.0175 32.8692 53.4285 32.8692C52.8395 32.8692 52.2747 33.1031 51.8582 33.5196C51.4417 33.9361 51.2077 34.5009 51.2077 35.0899C51.2077 35.6789 51.4417 36.2437 51.8582 36.6602C52.2747 37.0767 52.8395 37.3106 53.4285 37.3106Z"/>
</mask>
<path d="M22.9156 7.52165C25.9445 5.22769 29.6423 3.99044 33.4418 3.99956C34.5078 3.99956 35.3561 4.55475 35.8491 4.93671C36.3999 5.37198 36.9151 5.92716 37.377 6.48235C37.7045 6.88014 37.8835 7.37946 37.8833 7.89474V23.9862H33.0643C32.5405 22.5045 31.5097 21.2557 30.1541 20.4605C28.7985 19.6653 27.2055 19.3749 25.6565 19.6407C24.1076 19.9064 22.7024 20.7112 21.6895 21.9128C20.6765 23.1144 20.1209 24.6353 20.1209 26.2069C20.1209 27.7785 20.6765 29.2995 21.6895 30.5011C22.7024 31.7027 24.1076 32.5074 25.6565 32.7732C27.2055 33.039 28.7985 32.7486 30.1541 31.9534C31.5097 31.1582 32.5405 29.9094 33.0643 28.4277H37.8833V70.2442C37.8835 70.573 37.8107 70.8977 37.6702 71.195C37.5296 71.4922 37.3248 71.7546 37.0705 71.963C35.0186 73.6419 32.2737 75.0632 29.0004 75.0632C23.7328 75.0632 19.811 72.4072 17.2749 69.2315C15.4528 66.9688 14.2048 64.2992 13.6373 61.45C11.9117 60.99 10.3118 60.1475 8.956 58.985C6.50431 56.8842 4.57227 53.4776 4.57227 48.4143C4.57227 45.9404 4.7366 43.7064 5.10524 41.7521H19.0071C21.8318 41.7521 24.1592 43.8618 24.5145 46.5889C23.0375 47.1234 21.7968 48.1626 21.0116 49.523C20.2264 50.8835 19.9471 52.4776 20.223 54.0239C20.499 55.5703 21.3125 56.9694 22.5198 57.9742C23.7271 58.979 25.2507 59.5249 26.8214 59.5156C28.3922 59.5062 29.9091 58.9421 31.1043 57.9229C32.2996 56.9037 33.0963 55.495 33.3537 53.9455C33.6112 52.3959 33.3129 50.8053 32.5115 49.4543C31.71 48.1034 30.457 47.0791 28.9737 46.5622C28.7865 44.047 27.6552 41.6956 25.8067 39.9797C23.9582 38.2639 21.5292 37.3104 19.0071 37.3106H6.53096C7.2105 35.9871 8.121 34.8678 9.30688 34.0728C9.60684 33.8742 9.92164 33.699 10.2485 33.5487C8.98709 29.8534 9.31576 25.5274 10.5327 22.1297C11.31 19.9445 12.5447 17.8792 14.2414 16.5023C15.3606 15.5918 16.6931 14.9922 18.1499 14.8767C18.7894 11.8432 20.5882 9.33377 22.92 7.52165H22.9156ZM42.3248 59.518H45.6559C48.3063 59.518 50.8481 58.4651 52.7222 56.591C54.5964 54.7169 55.6492 52.1751 55.6492 49.5247V41.3746C57.1309 40.8507 58.3797 39.8199 59.1749 38.4643C59.9701 37.1088 60.2605 35.5157 59.9948 33.9668C59.729 32.4178 58.9242 31.0127 57.7226 29.9997C56.5211 28.9868 55.0001 28.4312 53.4285 28.4312C51.8569 28.4312 50.3359 28.9868 49.1343 29.9997C47.9328 31.0127 47.128 32.4178 46.8622 33.9668C46.5965 35.5157 46.8868 37.1088 47.682 38.4643C48.4772 39.8199 49.726 40.8507 51.2077 41.3746V49.5247C51.2077 52.5893 48.7205 55.0765 45.6559 55.0765H42.3248V7.89474C42.3246 7.37946 42.5036 6.88014 42.8311 6.48235C43.2886 5.92716 43.8083 5.37198 44.359 4.93671C44.8476 4.55475 45.6959 3.99956 46.7663 3.99956C50.5659 3.99044 54.2636 5.22769 57.2926 7.52165C59.6243 9.33377 61.4231 11.8432 62.0583 14.8767C63.5151 14.9878 64.8475 15.5918 65.9668 16.5023C67.6634 17.8792 68.8981 19.9445 69.6754 22.1297C70.8924 25.5274 71.221 29.8578 69.9597 33.5443C70.2794 33.6953 70.5948 33.8729 70.9012 34.0772C72.1227 34.89 73.0509 36.0537 73.7349 37.4261C75.0807 40.1132 75.6359 43.8618 75.6359 48.4143C75.6359 53.482 73.7038 56.8842 71.2521 58.985C69.8964 60.1475 68.2964 60.99 66.5708 61.45C66.1267 63.9284 64.883 66.7976 62.9332 69.2315C60.4016 72.4072 56.4753 75.0632 51.2077 75.0632C47.9388 75.0632 45.1895 73.6419 43.142 71.963C42.8869 71.755 42.6813 71.4929 42.5399 71.1956C42.3986 70.8983 42.3251 70.5733 42.3248 70.2442V59.518ZM26.7796 23.9862C26.1907 23.9862 25.6258 24.2202 25.2093 24.6366C24.7929 25.0531 24.5589 25.618 24.5589 26.2069C24.5589 26.7959 24.7929 27.3608 25.2093 27.7772C25.6258 28.1937 26.1907 28.4277 26.7796 28.4277C27.3686 28.4277 27.9335 28.1937 28.3499 27.7772C28.7664 27.3608 29.0004 26.7959 29.0004 26.2069C29.0004 25.618 28.7664 25.0531 28.3499 24.6366C27.9335 24.2202 27.3686 23.9862 26.7796 23.9862ZM26.7796 50.6351C26.1907 50.6351 25.6258 50.869 25.2093 51.2855C24.7929 51.702 24.5589 52.2668 24.5589 52.8558C24.5589 53.4448 24.7929 54.0096 25.2093 54.4261C25.6258 54.8426 26.1907 55.0765 26.7796 55.0765C27.3686 55.0765 27.9335 54.8426 28.3499 54.4261C28.7664 54.0096 29.0004 53.4448 29.0004 52.8558C29.0004 52.2668 28.7664 51.702 28.3499 51.2855C27.9335 50.869 27.3686 50.6351 26.7796 50.6351ZM53.4285 37.3106C54.0175 37.3106 54.5823 37.0767 54.9988 36.6602C55.4153 36.2437 55.6492 35.6789 55.6492 35.0899C55.6492 34.5009 55.4153 33.9361 54.9988 33.5196C54.5823 33.1031 54.0175 32.8692 53.4285 32.8692C52.8395 32.8692 52.2747 33.1031 51.8582 33.5196C51.4417 33.9361 51.2077 34.5009 51.2077 35.0899C51.2077 35.6789 51.4417 36.2437 51.8582 36.6602C52.2747 37.0767 52.8395 37.3106 53.4285 37.3106Z" stroke="white" stroke-width="7.55996" mask="url(#path-1-outside-1_2_409)"/>
</svg>
