<svg width="21" height="12" viewBox="0 0 21 12" fill="none" xmlns="http://www.w3.org/2000/svg">
<path d="M20.5002 6.37279L20.5002 6.37695C20.5008 6.45692 20.4851 6.53618 20.4543 6.60998C20.4235 6.68379 20.3781 6.75062 20.3209 6.80649L20.3209 6.80647L20.3169 6.81045L15.8049 11.3165L15.8046 11.3168C15.7465 11.3749 15.6776 11.421 15.6017 11.4524C15.5259 11.4838 15.4446 11.5 15.3625 11.5C15.2804 11.5 15.1991 11.4838 15.1232 11.4524C15.0474 11.421 14.9784 11.3749 14.9204 11.3168L14.9199 11.3163C14.862 11.2585 14.816 11.1899 14.7847 11.1143C14.7534 11.0388 14.7372 10.9578 14.7372 10.876C14.7372 10.7942 14.7534 10.7132 14.7847 10.6376C14.816 10.5622 14.8619 10.4936 14.9197 10.4359C14.9198 10.4358 14.9198 10.4357 14.9199 10.4357L17.5187 7.85342L18.3788 6.99874L17.1662 6.99874L1.12523 6.99874C0.95947 6.99874 0.800498 6.93289 0.683288 6.81568C0.566077 6.69847 0.50023 6.5395 0.50023 6.37374C0.50023 6.20798 0.566077 6.04901 0.683288 5.9318C0.800498 5.81459 0.95947 5.74874 1.12523 5.74874L17.1512 5.74874L18.3564 5.74874L17.5052 4.8956L14.9282 2.3126L14.9277 2.31213C14.8699 2.25437 14.8241 2.18579 14.7928 2.11032C14.7616 2.03484 14.7455 1.95394 14.7455 1.87224C14.7455 1.79054 14.7616 1.70964 14.7928 1.63417C14.8241 1.55876 14.8699 1.49024 14.9276 1.43252C15.0448 1.31547 15.2036 1.24973 15.3692 1.24973C15.5349 1.24973 15.6937 1.31547 15.8109 1.43252L15.811 1.43266L20.23 5.84266L20.2471 5.85965L20.2656 5.87493C20.3392 5.93538 20.3983 6.0114 20.4389 6.0975C20.4795 6.18359 20.5004 6.27761 20.5002 6.37279Z" fill="white" stroke="white"/>
</svg>
