<svg width="8" height="11" viewBox="0 0 8 11" fill="none" xmlns="http://www.w3.org/2000/svg">
<path d="M7.70463 6.53675C7.65943 6.58992 7.48875 6.81725 7.32976 7.00425C6.39766 8.18033 3.9661 10.1053 2.69342 10.6929C2.50015 10.7873 2.0115 10.9872 1.75041 11C1.50024 11 1.26176 10.934 1.03419 10.8002C0.750511 10.6132 0.522942 10.3189 0.398246 9.9715C0.317974 9.73042 0.193278 9.009 0.193278 8.99617C0.0685826 8.20692 0 6.9245 0 5.50733C0 4.15708 0.0685826 2.92692 0.170677 2.12575C0.182367 2.11292 0.307063 1.21642 0.443449 0.909333C0.693619 0.348332 1.18227 0 1.70521 0H1.75041C2.09099 0.0137501 2.80721 0.362083 2.80721 0.374917C4.0113 0.963417 6.38675 2.794 7.34145 4.01042C7.34145 4.01042 7.61033 4.323 7.72723 4.51825C7.9096 4.79875 8 5.14617 8 5.49358C8 5.88133 7.89791 6.2425 7.70463 6.53675Z" fill="#FB9C46"/>
</svg>
