<svg width="63" height="72" viewBox="0 0 63 72" fill="none" xmlns="http://www.w3.org/2000/svg">
<path d="M19.2605 33.5984C15.636 33.5984 12.16 32.1586 9.59707 29.5957C7.03418 27.0328 5.59436 23.5568 5.59436 19.9323V8.99946C5.59436 8.27456 5.88233 7.57936 6.39491 7.06678C6.90748 6.5542 7.60269 6.26624 8.32758 6.26624H11.0608C11.7857 6.26624 12.4809 5.97828 12.9935 5.4657C13.5061 4.95312 13.794 4.25792 13.794 3.53302C13.794 2.80813 13.5061 2.11292 12.9935 1.60035C12.4809 1.08777 11.7857 0.799805 11.0608 0.799805H8.32758C6.1529 0.799805 4.06729 1.66369 2.52955 3.20143C0.991819 4.73916 0.12793 6.82477 0.12793 8.99946V19.9323C0.131443 23.0201 0.884408 26.061 2.32216 28.7936C3.7599 31.5263 5.83947 33.8692 8.38225 35.621C10.8253 37.7748 12.8065 40.4014 14.2064 43.3421C15.6063 46.2828 16.3958 49.4767 16.5272 52.7309C16.5272 57.8052 18.543 62.6716 22.131 66.2597C25.7191 69.8477 30.5855 71.8635 35.6598 71.8635C40.734 71.8635 45.6004 69.8477 49.1885 66.2597C52.7765 62.6716 54.7923 57.8052 54.7923 52.7309V49.6151C57.3688 48.9498 59.6142 47.3677 61.1077 45.1654C62.6011 42.963 63.2401 40.2916 62.9048 37.6518C62.5695 35.012 61.2829 32.5851 59.2863 30.8261C57.2897 29.067 54.72 28.0965 52.0591 28.0965C49.3981 28.0965 46.8284 29.067 44.8318 30.8261C42.8352 32.5851 41.5486 35.012 41.2133 37.6518C40.878 40.2916 41.517 42.963 43.0105 45.1654C44.5039 47.3677 46.7493 48.9498 49.3258 49.6151V52.7309C49.3258 56.3554 47.886 59.8314 45.3231 62.3943C42.7602 64.9572 39.2842 66.397 35.6598 66.397C32.0353 66.397 28.5593 64.9572 25.9964 62.3943C23.4335 59.8314 21.9937 56.3554 21.9937 52.7309C22.132 49.4727 22.93 46.2763 24.3394 43.3354C25.7488 40.3944 27.7403 37.77 30.1933 35.621C32.726 33.8631 34.7949 31.5176 36.2229 28.7853C37.651 26.053 38.3956 23.0153 38.393 19.9323V8.99946C38.393 6.82477 37.5291 4.73916 35.9913 3.20143C34.4536 1.66369 32.368 0.799805 30.1933 0.799805H27.4601C26.7352 0.799805 26.04 1.08777 25.5274 1.60035C25.0148 2.11292 24.7269 2.80813 24.7269 3.53302C24.7269 4.25792 25.0148 4.95312 25.5274 5.4657C26.04 5.97828 26.7352 6.26624 27.4601 6.26624H30.1933C30.9182 6.26624 31.6134 6.5542 32.126 7.06678C32.6386 7.57936 32.9265 8.27456 32.9265 8.99946V19.9323C32.9265 21.727 32.5731 23.5041 31.8863 25.1621C31.1995 26.8202 30.1928 28.3267 28.9238 29.5957C27.6548 30.8647 26.1483 31.8714 24.4902 32.5581C22.8322 33.2449 21.0551 33.5984 19.2605 33.5984ZM52.0591 44.5313C50.6093 44.5313 49.2189 43.9554 48.1937 42.9302C47.1685 41.905 46.5926 40.5146 46.5926 39.0648C46.5926 37.6151 47.1685 36.2247 48.1937 35.1995C49.2189 34.1743 50.6093 33.5984 52.0591 33.5984C53.5088 33.5984 54.8993 34.1743 55.9244 35.1995C56.9496 36.2247 57.5255 37.6151 57.5255 39.0648C57.5255 40.5146 56.9496 41.905 55.9244 42.9302C54.8993 43.9554 53.5088 44.5313 52.0591 44.5313Z" fill="white"/>
</svg>
